<?xml version="1.0" encoding="UTF-8"?>
<svg id="Layer_1" xmlns="http://www.w3.org/2000/svg" version="1.1" viewBox="0 0 732.5 317">
  <!-- Generator: Adobe Illustrator 29.0.0, SVG Export Plug-In . SVG Version: 2.1.0 Build 186)  -->
  <defs>
    <style>
      .st0 {
        fill: #9b2319;
      }
    </style>
  </defs>
  <path d="M334.1,5.3c-4.4.9-9.7,3.1-15.9,6.5-6.6,3.6-12.1,7.8-16.6,12.5-4.4,4.7-8.1,9.6-10.9,14.7-2.9,5.1-4.9,10.3-6.1,15.5-1.3,5.2-1.9,10.2-1.9,15s1,12.2,3.1,18.1c2,5.9,5,11.1,8.7,15.5,3.8,4.4,8.3,8,13.7,10.8,5.3,2.7,11.4,4.1,18.3,4.1s5.1-.5,8.4-1.4,6.6-2,9.9-3.4,6.5-2.9,9.6-4.6c3.1-1.7,5.6-3.4,7.7-5,2-1.8,3.9-3.5,5.6-5.1s2.6-3.2,2.6-4.8-.9-1.7-2.7-.3c-5.2,3.9-9.9,6.5-13.8,8-4,1.5-8.1,2.2-12.5,2.2s-10.6-.9-15.4-2.6c-4.8-1.7-9.1-4.3-12.8-7.9-3.8-3.5-6.7-8.1-8.9-13.8-2.2-5.7-3.2-12.6-3.2-20.8s1.6-17.9,5-24.4c3.3-6.5,7.1-11.7,11.4-15.5,5-4.3,11.5-6.5,19.5-6.5s14,1.9,19.5,5.6c5.5,3.8,9.9,8.6,13.3,14.5s6,12.6,7.7,20.2c1.7,7.5,2.6,15.1,2.6,22.9s-1.5,21.5-4.4,32.3c-3,10.8-6.6,21.2-10.9,31.1s-9.1,18.9-14.2,27-9.9,14.6-14.2,19.6c-9.1,10.5-17.9,19.2-26.3,26.3-8.4,7.1-15.9,12.5-22.5,16.4-2,1.1-3.1,2-3.1,2.7s.9,1,2.7,1,5.2-.9,10.1-2.7c4.9-1.8,11.8-5.7,20.7-11.6,10.5-6.8,20.7-15.5,30.7-26s18.9-22.1,26.6-34.8c7.7-12.7,13.9-26.5,18.6-41.3s7-29.9,7-45.4-1-14.1-3.1-21.7c-2.1-7.6-5.2-14.7-9.4-21.3-4.2-6.6-9.7-12.1-16.4-16.4-6.7-4.3-14.7-6.5-24.1-6.5s-9.1.5-13.5,1.4h-.2ZM481.5,210.4c4.6-1.5,8.6-3.5,12.3-6,2-1.6,3.9-3.2,5.5-4.8,1.6-1.6,2.4-3,2.4-4.1s-1-1.6-3.1,0c-1.4.9-3.7,2-7,3.4s-7.7,2-13.1,2c-10.7,0-18.3-3.3-22.9-9.9-1.1-1.8-1.9-4-2.4-6.7-.5-2.6-.9-6.9-1.4-12.8-.2-1.8-.3-4.7-.3-8.7s0-8.4-.2-13.3c-.1-4.9-.2-10-.3-15.2-.1-5.2-.2-10.1-.2-14.7v-17.8c0-1.1.2-1.9.7-2.4s1.8-.7,4.1-.7h8.5c3.4,0,7,0,10.8.2,3.8.1,7.5.2,11.3.2h10.4c.9,0,1.7-.8,2.4-2.4.7-1.6,1-3.6,1-6.1s-.2-2.1-.7-2.9c-.5-.8-.9-1.2-1.4-1.2-2,0-5.2,0-9.4.2-4.2.1-8.7.2-13.3.3-4.7.1-9.1.2-13.1.3-4.1.1-6.9.2-8.5.2s-1.1-.3-1.4-1c-.2-.7-.3-1.2-.3-1.7-.2-2.5-.2-5.3,0-8.5s.5-5.7.7-7.5c0-.7-.5-1.1-1.5-1.2-1-.1-2.1.6-3.2,2.2-3.9,5.2-8.1,9.9-12.6,13.8-4.6,4-9.1,6.8-13.7,8.4-1.8.9-2.9,1.5-3.1,1.7s-.3.6-.3,1c0,1.4,1.4,2.3,4.1,2.7,1.8.5,3.6.9,5.5,1.2,1.8.3,3.2.7,4.1,1.2.9.2,1.4,2.6,1.4,7.2v71c0,8.2,1.4,14.5,4.1,18.8,5.5,10.5,15.6,15.7,30.4,15.7s9.4-.7,14-2.2h-.3ZM548.2,88.5c-7.2,3.3-12.5,6.3-15.9,9.1-6.8,5.5-12.7,12.5-17.6,21.2-4.9,8.7-7.3,19.5-7.3,32.4s1.8,17.1,5.5,24.6c3.6,7.5,8.5,14.1,14.5,19.8,6,5.7,13,10.1,20.8,13.3,7.9,3.2,16,4.8,24.4,4.8s12.3-1.2,19.3-3.6c6.9-2.4,13-5.5,18.3-9.4,2.7-2.1,5.6-4.8,8.7-8.2,3.1-3.4,5.9-7.3,8.5-11.8,2.6-4.4,4.8-9.4,6.5-14.9s2.6-11.4,2.6-17.8c0-9.1-1.7-17.6-5.1-25.4-3.4-7.9-8-14.7-13.8-20.5s-12.6-10.4-20.5-13.7-16.2-5-25.1-5-16.6,1.7-23.7,5h-.1ZM587.7,95.2c6.4,3.9,11.7,8.9,16.1,15,4.3,6.1,7.6,13,9.9,20.5,2.3,7.5,3.4,15,3.4,22.5,0,12.3-1.9,22.4-5.6,30.2-3.8,7.9-7,12.9-9.7,15.2-3.2,2.5-6.8,4.7-10.9,6.5-4.1,1.8-8.5,2.7-13.3,2.7s-11.3-1.4-17.4-4.1c-6.1-2.7-11.8-7.3-17.1-13.7-5.9-7.3-10.1-15-12.5-23.2s-3.6-15.7-3.6-22.5,1.1-17.5,3.4-24.4c2.3-6.9,5.3-12.7,9.1-17.2,3.8-4.6,8-7.9,12.6-10.1,4.7-2.2,9.3-3.2,13.8-3.2,8.2,0,15.5,1.9,21.9,5.8h-.1ZM715.1,103c2,1.1,3.5,1.8,4.3,2s1.4.3,1.9.3,1-.1,1.7-.3,1.8-1,3.4-2.4c1.8-1.4,3.3-3,4.4-4.8,1.1-1.8,1.7-3.3,1.7-4.4,0-1.8-.5-3.2-1.4-4.1-3.6-3.2-7.7-4.8-12.3-4.8s-6.8.7-10.2,2.2-6.7,3.4-9.9,5.6c-3.2,2.3-6.3,4.8-9.2,7.7-3,2.8-5.7,5.8-8.2,8.7-1.1,1.1-1.7,1.1-1.7,0v-5c0-2.2,0-4.4.2-6.7,0-2.3.2-4.4.2-6.3v-3.9c0-2,0-3.4-.3-4.1-.2-.7-.6-1-1-1-1.1,0-2.7.6-4.8,1.7-2.5,1.4-5.5,2.7-9.1,4.1-3.5,1.4-6.2,2.3-8,2.7-3.9,1.1-5.8,2.2-5.8,3.1s.2.9.5,1.4,1.1,1.1,2.2,2c3,2.5,5.2,4.2,6.7,5.1,1.5.9,2.2,2,2.2,3.4v39.3c0,11.4,0,21.5-.2,30.2,0,8.8-.4,14.6-.9,17.6-.7,4.6-2.1,7.8-4.3,9.7-2.2,1.9-5,3.4-8.4,4.3-1.1.5-2.2,1-3.2,1.7s-1.5,1.3-1.5,1.7c0,1.1,1.7,1.7,5.1,1.7s4.1-.3,6.8-1,6.4-1,10.9-1c6.8,0,13.3.2,19.3.7s10.3.7,12.8.7c5.7,0,8.5-.8,8.5-2.4s-2.2-2.4-6.5-3.1c-6.6-.5-11.3-1.6-14.2-3.4-2.8-1.8-4.6-5.5-5.3-10.9-.5-3.4-.8-9.6-1-18.6s-.3-20-.3-33v-10.8c0-3.5,0-6.1.3-7.7.5-4.6,2.7-9.1,6.8-13.7,2.5-2.3,5.2-4.2,8-5.6,2.8-1.5,5.6-2.2,8.4-2.2s7.2,1.1,11.3,3.4h0v.2Z"/>
  <path d="M11.9,98.2c5,2.5,8,4.5,9.1,6,1,1.5,1.5,3.1,1.5,5v6.3c0,3.5,0,7.9-.2,13,0,5.1-.2,10.7-.2,16.7s0,11.8-.2,17.4c0,5.6-.2,10.5-.3,14.7,0,4.2-.2,7.2-.2,9.1-.2,7.3-1.3,12-3.1,14.2-1.8,2.2-4.4,3.7-7.9,4.6-2.5.5-4.2,1-5.1,1.5-.9.6-1.4,1.1-1.4,1.5,0,.7.4,1.2,1.2,1.5s1.8.5,2.9.5c1.8,0,4.1-.1,6.8-.3,2.7-.2,6.5-.3,11.3-.3s4,0,6.5.2c2.5.1,5,.3,7.3.5,2.4.2,4.5.4,6.3.5s3,.2,3.4.2c1.4,0,2.6-.2,3.8-.5,1.1-.3,1.7-1,1.7-1.9s-1.7-2-5.1-2.7c-2.5-.5-4.6-1.2-6.3-2.2-1.7-1-2.8-3.5-3.2-7.3-.2-1.4-.4-3.9-.5-7.5s-.2-8-.2-13v-68.3c0-4.8,0-8.9.2-12.5,0-3.5.3-6.1.5-7.7.2-3.2-.2-4.8-1.4-4.8s-2.5.8-5.5,2.4c-2.5,1.1-5.8,2.5-9.7,4.1-4,1.6-7.7,3-11.1,4.1-2.3.7-3.4,1.6-3.4,2.7s.8,1.7,2.4,2.4h0ZM26.9,28.6c-2.3,2-3.4,4.9-3.4,8.5s1,5.5,2.9,7.7,4.3,3.2,7,3.2,4.1-.9,6.8-2.6c2.7-1.7,4.1-4.6,4.1-8.7s-.8-5-2.4-7.5-4.2-3.8-7.9-3.8-4.9,1-7.2,3.1h0ZM93.3,244.3c3.8-5.8,7.3-10.2,10.8-13.2.7-.7,1.8-1.3,3.4-1.9,1.6-.6,4.7-1.1,9.2-1.5,4.6-.5,10.4-.7,17.4-.7h20.5c10.7,0,18.6,2.7,23.6,8.2s7.5,11.8,7.5,19.1-2.1,15.4-6.1,22.4c-4.1,6.9-8.5,12.1-13.3,15.5-5.7,3.9-11.4,6.2-17.2,7s-10.6,1.2-14.5,1.2-8.5-.2-11.8-.7-6.1-1.1-8.5-2-4.6-2-6.7-3.2c-2-1.3-4.2-2.7-6.5-4.3-5-3.9-8.5-8.5-10.4-13.8-1.9-5.4-2.9-9.7-2.9-13.1,0-6.8,1.9-13.1,5.6-19h-.1ZM105.4,84.8c-6.1,2.2-11.8,5.6-17.1,10.4-4.3,3.9-7.8,8.4-10.4,13.7-2.6,5.2-3.9,11.5-3.9,18.8s.9,10.1,2.6,14.7,3.9,8.7,6.5,12.3c2.6,3.6,5.5,6.8,8.5,9.6,3.1,2.7,6,4.9,8.7,6.5,1.1.7,1.4,1.4.7,2-1.4,1.8-3.1,3.8-5.3,6s-4.5,4.4-7,6.7c-2.5,2.3-5.1,4.4-7.9,6.5-2.7,2-5.4,3.9-7.9,5.5-.5.2-1,.6-1.5,1.2-.6.6-.9,1.2-.9,1.9,0,3.2,1,6.3,2.9,9.2,1.9,3,4.3,5.6,7,8,2.7,2.4,5.7,4.4,9.1,6,3.3,1.6,6.3,2.7,9.1,3.4.5.2.6.7.5,1.5s-.3,1.3-.5,1.5c-1.8,2-3.9,4.6-6.1,7.5-2.3,3-4.6,5.9-6.8,8.9-2.3,3-4.3,5.5-6,7.7s-2.8,3.6-3.2,4.3c-1.1,1.6-2.4,3.6-3.8,6s-2,5.3-2,8.7c0,6.6,1.4,12.3,4.3,17.1,2.8,4.8,6.5,8.8,11.1,12s9.8,5.6,15.9,7.2c6,1.6,12.3,2.4,19,2.4s14.3-.9,20.5-2.7c6.1-1.8,11.8-4.1,17.1-6.8,5.5-3,10.7-6.4,15.7-10.4s9.3-8.4,13-13.3c3.6-4.9,6.5-10.1,8.7-15.5,2.2-5.5,3.2-11.2,3.2-17.1s-1-10.8-2.9-16.1c-1.9-5.2-4.8-9.5-8.7-12.6-3.2-2.5-6.5-4.6-9.9-6.1-3.4-1.6-8.7-2.4-15.7-2.4s-4.8,0-8.2.2c-3.4.1-7,.2-10.8.3-3.8.1-7.5.2-11.1.3-3.6.1-6.8.2-9.6.2-4.3,0-8.5-.2-12.5-.5s-7.5-1-10.6-2-5.5-2.5-7.3-4.4-2.7-4.4-2.7-7.3.3-1.8.9-3.4c.6-1.6,1.6-3.2,3.2-4.8,2-2.3,4.3-4.6,6.8-7s4.8-4.3,6.8-5.6c.2-.2.9-.5,1.9-.9,1-.3,1.9-.4,2.6-.2,1.4.2,3.4.5,6.1.9,2.7.3,5.2.5,7.5.5s6-.5,10.4-1.4,9.5-3.3,15.2-7.2c5.9-4.3,11-10.5,15.2-18.4,4.2-8,6.3-17.2,6.3-27.7s-.1-6.7-.3-9.2-.3-4.3-.3-5.5.2-.9.7-1.2.9-.5,1.4-.5c.9,0,2.3,0,4.3.2,1.9.1,4,.2,6.3.2s4.4,0,6.5.2c2,.1,3.6.2,4.8.2s1.5-.5,2.4-1.5,1.4-2.4,1.4-4.3-.3-3.5-1-5-1.5-2.2-2.4-2.2-2.8,0-5.1.2c-2.3.1-4.7.2-7.2.2s-5,0-7.3.2c-2.4.1-4.4.2-6,.2-3.6,0-6.3-.1-7.9-.3-1.6-.2-3.1-.7-4.4-1.4-.7-.5-2.1-1.1-4.3-2s-4.7-1.9-7.7-2.9-6.3-1.9-10.1-2.7-7.7-1.2-11.8-1.2c-6.1,0-12.3,1.1-18.4,3.2h0l-.3-.7ZM135.1,89.2c3.2,2.2,6.4,5,9.6,8.4,3.9,4.8,6.7,10.4,8.4,16.9s2.6,13.4,2.6,20.7-.7,7.9-2.2,12-3.5,7.9-6,11.3-5.5,6.2-9,8.4c-3.5,2.2-7.5,3.2-11.8,3.2s-9.6-1-13.1-2.9-6.7-4.2-9.4-6.7c-3-3-5.6-7.8-8-14.5s-3.6-13.7-3.6-21,.9-10.9,2.6-17.1c1.7-6.1,4.4-10.8,8-14,5.9-5.2,12.3-7.9,19.1-7.9s9.8,1.1,13,3.2h-.2Z"/>
  <path class="st0" d="M244.6,163.7c10.8,0,19.6-8.8,19.6-19.6s-8.8-19.6-19.6-19.6-19.6,8.8-19.6,19.6,8.8,19.6,19.6,19.6h0Z"/>
</svg>