<?xml version="1.0" encoding="UTF-8"?>
<svg id="Layer_1" xmlns="http://www.w3.org/2000/svg" version="1.1" viewBox="0 0 932.9 104.5">
  <!-- Generator: Adobe Illustrator 29.0.0, SVG Export Plug-In . SVG Version: 2.1.0 Build 186)  -->
  <defs>
    <style>
      .st0 {
        fill: #9b2319;
      }
    </style>
  </defs>
  <g>
    <path d="M100.1,11.2c-1.3.3-2.9.9-4.7,1.9-1.9,1.1-3.6,2.3-4.9,3.7-1.3,1.4-2.4,2.8-3.2,4.3-.9,1.5-1.4,3-1.8,4.6-.4,1.5-.6,3-.6,4.4s.3,3.6.9,5.3c.6,1.7,1.5,3.3,2.6,4.6,1.1,1.3,2.4,2.4,4,3.2,1.6.8,3.4,1.2,5.4,1.2s1.5-.1,2.5-.4,1.9-.6,2.9-1,1.9-.9,2.8-1.4,1.7-1,2.3-1.5c.6-.5,1.2-1,1.7-1.5s.8-.9.8-1.4-.3-.5-.8,0c-1.5,1.2-2.9,1.9-4.1,2.4-1.2.4-2.4.6-3.7.6s-3.1-.3-4.5-.8-2.7-1.3-3.8-2.3c-1.1-1-2-2.4-2.6-4.1-.6-1.7-.9-3.7-.9-6.1s.5-5.3,1.5-7.2c1-1.9,2.1-3.5,3.4-4.6,1.5-1.3,3.4-1.9,5.8-1.9s4.1.6,5.8,1.7c1.6,1.1,2.9,2.5,3.9,4.3s1.8,3.7,2.3,6c.5,2.2.8,4.5.8,6.8s-.4,6.3-1.3,9.5c-.9,3.2-1.9,6.3-3.2,9.2s-2.7,5.6-4.2,8-2.9,4.3-4.2,5.8c-2.7,3.1-5.3,5.7-7.8,7.8s-4.7,3.7-6.6,4.8c-.6.3-.9.6-.9.8s.3.3.8.3,1.5-.3,3-.8,3.5-1.7,6.1-3.4c3.1-2,6.1-4.6,9.1-7.7s5.6-6.5,7.9-10.3,4.1-7.8,5.5-12.2,2.1-8.8,2.1-13.4-.3-4.2-.9-6.4c-.6-2.2-1.5-4.3-2.8-6.3-1.2-1.9-2.9-3.6-4.8-4.8-2-1.3-4.3-1.9-7.1-1.9s-2.7.1-4,.4h0ZM143.6,71.7c1.4-.4,2.5-1,3.6-1.8.6-.5,1.2-.9,1.6-1.4s.7-.9.7-1.2-.3-.5-.9,0c-.4.3-1.1.6-2.1,1s-2.3.6-3.9.6c-3.2,0-5.4-1-6.8-2.9-.3-.5-.6-1.2-.7-2-.1-.8-.3-2-.4-3.8,0-.5,0-1.4,0-2.6s0-2.5,0-3.9c0-1.4,0-3,0-4.5,0-1.5,0-3,0-4.3v-5.3c0-.3,0-.6.2-.7s.5-.2,1.2-.2h2.5c1,0,2.1,0,3.2,0,1.1,0,2.2,0,3.3,0h3.1c.3,0,.5-.2.7-.7.2-.5.3-1.1.3-1.8s0-.6-.2-.9-.3-.4-.4-.4c-.6,0-1.5,0-2.8,0-1.2,0-2.6,0-3.9,0-1.4,0-2.7,0-3.9,0-1.2,0-2,0-2.5,0s-.3,0-.4-.3c0-.2,0-.4,0-.5,0-.7,0-1.6,0-2.5s.1-1.7.2-2.2c0-.2-.1-.3-.4-.4s-.6.2-.9.6c-1.2,1.5-2.4,2.9-3.7,4.1-1.4,1.2-2.7,2-4,2.5-.5.3-.9.4-.9.5s0,.2,0,.3c0,.4.4.7,1.2.8.5.1,1.1.3,1.6.4.5,0,.9.2,1.2.4.3,0,.4.8.4,2.1v21c0,2.4.4,4.3,1.2,5.5,1.6,3.1,4.6,4.6,9,4.6s2.8-.2,4.1-.6h0ZM163.3,35.7c-2.1,1-3.7,1.9-4.7,2.7-2,1.6-3.7,3.7-5.2,6.3-1.4,2.6-2.2,5.8-2.2,9.6s.5,5,1.6,7.3c1.1,2.2,2.5,4.2,4.3,5.8s3.8,3,6.1,3.9c2.3.9,4.7,1.4,7.2,1.4s3.6-.4,5.7-1.1c2-.7,3.8-1.6,5.4-2.8.8-.6,1.7-1.4,2.6-2.4.9-1,1.7-2.2,2.5-3.5.8-1.3,1.4-2.8,1.9-4.4s.8-3.4.8-5.3c0-2.7-.5-5.2-1.5-7.5-1-2.3-2.4-4.3-4.1-6s-3.7-3.1-6-4-4.8-1.5-7.4-1.5-4.9.5-7,1.5h0ZM174.9,37.7c1.9,1.2,3.5,2.6,4.8,4.4,1.3,1.8,2.2,3.8,2.9,6,.7,2.2,1,4.4,1,6.6,0,3.6-.6,6.6-1.7,8.9-1.1,2.3-2.1,3.8-2.9,4.5-.9.7-2,1.4-3.2,1.9-1.2.5-2.5.8-3.9.8s-3.3-.4-5.1-1.2c-1.8-.8-3.5-2.2-5-4-1.7-2.2-3-4.4-3.7-6.8s-1.1-4.6-1.1-6.6.3-5.2,1-7.2c.7-2,1.6-3.7,2.7-5.1,1.1-1.4,2.4-2.3,3.7-3,1.4-.6,2.7-.9,4.1-.9,2.4,0,4.6.6,6.5,1.7h0ZM212.5,40c.6.3,1,.5,1.3.6s.4,0,.6,0,.3,0,.5,0,.5-.3,1-.7c.5-.4,1-.9,1.3-1.4.3-.5.5-1,.5-1.3,0-.5-.1-.9-.4-1.2-1.1-.9-2.3-1.4-3.6-1.4s-2,.2-3,.6-2,1-2.9,1.7c-.9.7-1.9,1.4-2.7,2.3-.9.8-1.7,1.7-2.4,2.6-.3.3-.5.3-.5,0v-1.5c0-.6,0-1.3,0-2,0-.7,0-1.3,0-1.9v-1.2c0-.6,0-1,0-1.2,0-.2-.2-.3-.3-.3-.3,0-.8.2-1.4.5-.7.4-1.6.8-2.7,1.2-1,.4-1.8.7-2.4.8-1.2.3-1.7.6-1.7.9s0,.3.1.4.3.3.6.6c.9.7,1.5,1.2,2,1.5s.6.6.6,1v11.6c0,3.4,0,6.3,0,8.9,0,2.6-.1,4.3-.3,5.2-.2,1.4-.6,2.3-1.3,2.9s-1.5,1-2.5,1.3c-.3.1-.6.3-.9.5s-.4.4-.4.5c0,.3.5.5,1.5.5s1.2,0,2-.3,1.9-.3,3.2-.3c2,0,3.9,0,5.7.2s3,.2,3.8.2c1.7,0,2.5-.2,2.5-.7s-.6-.7-1.9-.9c-1.9-.1-3.3-.5-4.2-1-.8-.5-1.4-1.6-1.6-3.2-.1-1-.2-2.8-.3-5.5s0-5.9,0-9.7v-3.2c0-1,0-1.8,0-2.3.1-1.4.8-2.7,2-4,.7-.7,1.5-1.2,2.4-1.7.8-.4,1.7-.6,2.5-.6s2.1.3,3.3,1h0c0,0,0,0,0,0Z"/>
    <path d="M5,38.6c1.5.7,2.4,1.3,2.7,1.8.3.4.4.9.4,1.5v1.9c0,1,0,2.3,0,3.8,0,1.5,0,3.2,0,4.9s0,3.5,0,5.1c0,1.7,0,3.1,0,4.3,0,1.2,0,2.1,0,2.7,0,2.2-.4,3.5-.9,4.2-.5.6-1.3,1.1-2.3,1.4-.7.1-1.2.3-1.5.4-.3.2-.4.3-.4.4,0,.2.1.4.4.4s.5.1.9.1c.5,0,1.2,0,2,0,.8,0,1.9,0,3.3,0s1.2,0,1.9,0c.7,0,1.5,0,2.2.1.7,0,1.3.1,1.9.1s.9,0,1,0c.4,0,.8,0,1.1-.1.3,0,.5-.3.5-.6s-.5-.6-1.5-.8c-.7-.1-1.4-.4-1.9-.6s-.8-1-.9-2.2c0-.4-.1-1.2-.1-2.2s0-2.4,0-3.8v-20.2c0-1.4,0-2.6,0-3.7,0-1,0-1.8.1-2.3,0-.9,0-1.4-.4-1.4s-.7.2-1.6.7c-.7.3-1.7.7-2.9,1.2-1.2.5-2.3.9-3.3,1.2-.7.2-1,.5-1,.8s.2.5.7.7h0ZM9.4,18.1c-.7.6-1,1.4-1,2.5s.3,1.6.9,2.3,1.3.9,2.1.9,1.2-.3,2-.8c.8-.5,1.2-1.4,1.2-2.6s-.2-1.5-.7-2.2-1.2-1.1-2.3-1.1-1.4.3-2.1.9h0ZM29,81.7c1.1-1.7,2.2-3,3.2-3.9.2-.2.5-.4,1-.6.5-.2,1.4-.3,2.7-.4,1.4-.1,3.1-.2,5.1-.2h6c3.2,0,5.5.8,7,2.4s2.2,3.5,2.2,5.6-.6,4.5-1.8,6.6c-1.2,2-2.5,3.6-3.9,4.6-1.7,1.2-3.4,1.8-5.1,2.1s-3.1.4-4.3.4-2.5,0-3.5-.2-1.8-.3-2.5-.6-1.4-.6-2-.9c-.6-.4-1.2-.8-1.9-1.3-1.5-1.2-2.5-2.5-3.1-4.1-.6-1.6-.9-2.9-.9-3.9,0-2,.6-3.9,1.7-5.6h0ZM32.6,34.6c-1.8.6-3.5,1.7-5,3.1-1.3,1.2-2.3,2.5-3.1,4-.8,1.5-1.2,3.4-1.2,5.5s.3,3,.8,4.3,1.2,2.6,1.9,3.6,1.6,2,2.5,2.8c.9.8,1.8,1.4,2.6,1.9.3.2.4.4.2.6-.4.5-.9,1.1-1.6,1.8s-1.3,1.3-2.1,2-1.5,1.3-2.3,1.9c-.8.6-1.6,1.2-2.3,1.6-.1,0-.3.2-.4.4-.2.2-.3.4-.3.6,0,.9.3,1.9.9,2.7.6.9,1.3,1.7,2.1,2.4s1.7,1.3,2.7,1.8c1,.5,1.9.8,2.7,1,.1,0,.2.2.1.4s0,.4-.1.4c-.5.6-1.2,1.4-1.8,2.2-.7.9-1.4,1.7-2,2.6-.7.9-1.3,1.6-1.8,2.3s-.8,1.1-.9,1.3c-.3.5-.7,1.1-1.1,1.8s-.6,1.6-.6,2.6c0,1.9.4,3.6,1.3,5,.8,1.4,1.9,2.6,3.3,3.5s2.9,1.7,4.7,2.1c1.8.5,3.6.7,5.6.7s4.2-.3,6-.8c1.8-.5,3.5-1.2,5-2,1.6-.9,3.2-1.9,4.6-3.1s2.7-2.5,3.8-3.9c1.1-1.4,1.9-3,2.6-4.6.6-1.6.9-3.3.9-5s-.3-3.2-.9-4.8c-.6-1.5-1.4-2.8-2.6-3.7-.9-.7-1.9-1.4-2.9-1.8-1-.5-2.6-.7-4.6-.7s-1.4,0-2.4,0c-1,0-2.1,0-3.2,0s-2.2,0-3.3,0-2,0-2.8,0c-1.3,0-2.5,0-3.7-.1s-2.2-.3-3.1-.6-1.6-.7-2.2-1.3-.8-1.3-.8-2.2,0-.5.3-1c.2-.5.5-.9.9-1.4.6-.7,1.3-1.4,2-2.1s1.4-1.3,2-1.7c0,0,.3-.1.6-.3.3,0,.6-.1.8,0,.4,0,1,.1,1.8.3.8,0,1.5.1,2.2.1s1.8-.1,3.1-.4,2.8-1,4.5-2.1c1.7-1.3,3.2-3.1,4.5-5.4,1.2-2.4,1.9-5.1,1.9-8.2s0-2,0-2.7,0-1.3,0-1.6,0-.3.2-.4.3-.1.4-.1c.3,0,.7,0,1.3,0,.6,0,1.2,0,1.9,0s1.3,0,1.9,0c.6,0,1.1,0,1.4,0s.4-.1.7-.4.4-.7.4-1.3,0-1-.3-1.5-.4-.6-.7-.6-.8,0-1.5,0c-.7,0-1.4,0-2.1,0s-1.5,0-2.2,0c-.7,0-1.3,0-1.8,0-1.1,0-1.9,0-2.3,0-.5,0-.9-.2-1.3-.4-.2-.1-.6-.3-1.3-.6s-1.4-.6-2.3-.9-1.9-.6-3-.8-2.3-.4-3.5-.4c-1.8,0-3.6.3-5.4.9h0v-.2q0,0,0,0ZM41.4,35.9c.9.6,1.9,1.5,2.8,2.5,1.2,1.4,2,3.1,2.5,5s.8,4,.8,6.1-.2,2.3-.6,3.5-1,2.3-1.8,3.3-1.6,1.8-2.7,2.5-2.2.9-3.5.9-2.8-.3-3.9-.9-2-1.2-2.8-2c-.9-.9-1.7-2.3-2.4-4.3s-1.1-4-1.1-6.2.3-3.2.8-5c.5-1.8,1.3-3.2,2.4-4.1,1.7-1.5,3.6-2.3,5.6-2.3s2.9.3,3.8.9h0Z"/>
    <path class="st0" d="M73.7,57.9c3.2,0,5.8-2.6,5.8-5.8s-2.6-5.8-5.8-5.8-5.8,2.6-5.8,5.8,2.6,5.8,5.8,5.8h0Z"/>
  </g>
  <g>
    <path class="st0" d="M285.1,49.3c.5,0,.7.2.7.5,0,.7-.2,1.3-.5,1.8-.1.1-.3.2-.5.3-.2,0-.3,0-.5,0l-33.6.2c-.3,0-.7,0-1.1,0-.4,0-.6-.2-.6-.5s0-.4,0-.8c0-.4.2-.7.4-1.1.1-.1.3-.2.4-.3.2,0,.3-.1.4-.1h34.7Z"/>
    <path class="st0" d="M321.6,38c0-.3.3-.6,1-.8,1-.3,2-.7,3.1-1.2,1.1-.5,2-.8,2.8-1.2.8-.5,1.4-.7,1.6-.7.3,0,.4.5.4,1.4,0,.5-.1,1.2-.1,2.2,0,1,0,2.2,0,3.5v19.3c0,1.4,0,2.6,0,3.7,0,1,0,1.7.1,2.1.1,1.1.4,1.8.9,2.1.5.3,1.1.5,1.8.6,1,.2,1.5.5,1.5.8s-.2.4-.5.5c-.3,0-.7.1-1.1.1s-.5,0-1,0c-.5,0-1.1,0-1.8-.1-.7,0-1.4-.1-2.1-.1-.7,0-1.3,0-1.8,0-1.4,0-2.4,0-3.2,0-.8,0-1.4,0-1.9,0s-.6,0-.8-.1c-.2,0-.3-.2-.3-.4s.1-.3.4-.4c.3-.2.7-.3,1.4-.4,1-.3,1.7-.7,2.2-1.3.5-.6.8-2,.9-4,0-.5,0-1.4,0-2.6,0-1.2,0-2.6,0-4.2s0-3.2,0-4.9,0-3.3,0-4.7c0-1.4,0-2.7,0-3.7v-1.8c0-.5-.1-1-.4-1.4-.3-.4-1.2-1-2.6-1.7-.5-.2-.7-.4-.7-.7ZM328.6,18.1c1,0,1.8.4,2.2,1.1s.7,1.4.7,2.1c0,1.2-.4,2-1.2,2.5-.8.5-1.4.7-1.9.7-.8,0-1.4-.3-2-.9-.5-.6-.8-1.3-.8-2.2s.3-1.8,1-2.4c.6-.6,1.3-.9,2-.9Z"/>
    <path class="st0" d="M352.5,71c-4.2,0-7.1-1.5-8.6-4.4-.8-1.2-1.2-3-1.2-5.3v-20.1c0-1.3-.1-2-.4-2-.3-.1-.6-.2-1.2-.3-.5,0-1-.2-1.6-.3-.8-.1-1.2-.4-1.2-.8s0-.2,0-.3c0,0,.3-.2.9-.5,1.3-.4,2.6-1.2,3.9-2.4s2.5-2.4,3.6-3.9c.3-.5.6-.7.9-.6.3,0,.4.1.4.3,0,.5-.1,1.2-.2,2.1s0,1.7,0,2.4c0,.1,0,.3,0,.5,0,.2.2.3.4.3.5,0,1.3,0,2.4,0,1.2,0,2.4,0,3.7,0s2.6,0,3.8,0c1.2,0,2.1,0,2.7,0s.3.1.4.3.2.5.2.8c0,.7,0,1.3-.3,1.7-.2.5-.4.7-.7.7h-2.9c-1.1,0-2.1,0-3.2,0-1.1,0-2.1,0-3,0h-2.4c-.6,0-1,0-1.2.2-.1.1-.2.4-.2.7v5c0,1.3,0,2.7,0,4.2s0,2.9,0,4.3c0,1.4,0,2.6,0,3.8s0,2,0,2.5c.1,1.7.3,2.9.4,3.6.1.7.3,1.4.7,1.9,1.3,1.9,3.4,2.8,6.5,2.8s2.8-.2,3.7-.6c.9-.4,1.6-.7,2-1,.6-.5.9-.5.9,0s-.2.7-.7,1.2c-.5.5-1,.9-1.6,1.4-1,.7-2.2,1.3-3.5,1.7s-2.6.6-4,.6Z"/>
    <path class="st0" d="M392.1,35.9c-1.7,0-3.1.5-4.3,1.6-1.2,1.1-1.7,2.6-1.7,4.7s.2,2.1.6,2.9c.4.8.9,1.6,1.6,2.2.6.6,1.2,1.1,1.9,1.6.7.5,1.2.8,1.6,1.1,1.6,1,3,2,4.1,2.8,1.1.8,2,1.7,2.7,2.6.7.9,1.2,1.8,1.6,2.8s.5,2.1.5,3.3-.2,2.1-.5,2.9-.8,1.6-1.3,2.3-1.1,1.2-1.7,1.7c-.6.5-1.2.9-1.7,1.1-1.1.7-2.3,1.2-3.5,1.5-1.3.3-2.4.4-3.5.4s-2.5-.1-3.5-.4c-1.1-.3-2.3-.7-3.8-1.3-.8-.3-1.3-.8-1.3-1.4s0-1.5,0-2.4-.1-1.6-.2-2.2c-.1-.6-.1-1,0-1.2s.2-.2.3-.2.3,0,.4.2c.2.2.4.7.7,1.6.5,1.2,1,2.2,1.7,3,.7.8,1.5,1.4,2.3,1.9.7.5,1.4.8,2.2.9.7.2,1.4.2,2,.2s1.4-.2,2.2-.5c.8-.3,1.5-.8,2.1-1.4.6-.6,1.2-1.4,1.6-2.2s.6-1.8.6-2.9c0-2-.6-3.6-1.8-4.8-1.2-1.2-2.7-2.3-4.4-3.4-.9-.6-1.8-1.2-2.8-1.9s-1.8-1.5-2.6-2.3c-.8-.9-1.4-1.8-1.9-2.8-.5-1-.8-2.1-.8-3.2,0-1.7.3-3.1.9-4.3.6-1.2,1.3-2.1,2.2-2.8.9-.7,2-1.4,3.3-2s2.9-.9,4.8-.9,2.4.1,3.6.4c1.2.3,2,.5,2.6.7.3.2.5.5.5.8,0,.5.2,1.2.3,2.1.1.9.2,1.6.3,2.2,0,1-.2,1.5-.5,1.5s-.3-.1-.4-.3-.2-.5-.3-.8c-.3-.7-.6-1.4-.9-2-.3-.6-.7-1.2-1.5-1.7-.5-.4-1.2-.7-1.9-1s-1.6-.4-2.4-.4Z"/>
    <path class="st0" d="M419.2,71c-4.2,0-7.1-1.5-8.6-4.4-.8-1.2-1.2-3-1.2-5.3v-20.1c0-1.3-.1-2-.4-2-.3-.1-.6-.2-1.2-.3-.5,0-1-.2-1.6-.3-.8-.1-1.2-.4-1.2-.8s0-.2,0-.3c0,0,.3-.2.9-.5,1.3-.4,2.6-1.2,3.9-2.4s2.5-2.4,3.6-3.9c.3-.5.6-.7.9-.6.3,0,.4.1.4.3,0,.5-.1,1.2-.2,2.1s0,1.7,0,2.4c0,.1,0,.3,0,.5,0,.2.2.3.4.3.5,0,1.3,0,2.4,0,1.2,0,2.4,0,3.7,0s2.6,0,3.8,0c1.2,0,2.1,0,2.7,0s.3.1.4.3.2.5.2.8c0,.7,0,1.3-.3,1.7-.2.5-.4.7-.7.7h-2.9c-1.1,0-2.1,0-3.2,0-1.1,0-2.1,0-3,0h-2.4c-.6,0-1,0-1.2.2-.1.1-.2.4-.2.7v5c0,1.3,0,2.7,0,4.2s0,2.9,0,4.3c0,1.4,0,2.6,0,3.8s0,2,0,2.5c.1,1.7.3,2.9.4,3.6.1.7.3,1.4.7,1.9,1.3,1.9,3.4,2.8,6.5,2.8s2.8-.2,3.7-.6c.9-.4,1.6-.7,2-1,.6-.5.9-.5.9,0s-.2.7-.7,1.2c-.5.5-1,.9-1.6,1.4-1,.7-2.2,1.3-3.5,1.7s-2.6.6-4,.6Z"/>
    <path class="st0" d="M446.6,34.5c1.5,0,2.9.5,4.4,1.4,1.4.9,2.4,2.2,3,4,.3.8.5,2,.6,3.7.2,1.7.2,3.3.2,4.8s0,1.9,0,3.3c0,1.5,0,2.9-.1,4.5s-.1,3-.1,4.4,0,2.4,0,3c0,1,.3,1.9.8,2.7.5.8,1.5,1.2,3,1.2s1.8-.3,2.9-.9c.7-.4.9-.1.6.8-.5,1.2-1.4,2.1-2.7,2.8s-2.6,1.1-4.1,1.1-2.2-.4-3.2-1.3c-1-.8-1.7-1.9-2.2-3.1-.1-.3-.3-.3-.5,0-1.5,1.3-3,2.3-4.4,3.1-1.5.8-3.2,1.2-5.1,1.2s-3.8-.7-5.3-2.2c-1.5-1.5-2.3-3.4-2.3-5.9s.1-1.5.4-2.1c.3-.6.6-1.1,1-1.6s.8-.8,1.2-1.1.7-.5.9-.6c.6-.3,1.5-.7,2.7-1.2s2.6-1,4-1.5c1.4-.5,2.7-.9,3.9-1.3,1.2-.4,2-.6,2.5-.8.5-.1.8-.4,1-.7.2-.4.3-.6.3-.7,0-.6.1-1.3.1-2,0-.8,0-1.6,0-2.4,0-2-.2-3.7-.5-5.2-.4-1.5-1-2.5-1.9-3.1-.7-.5-1.4-.9-2.2-1.2-.7-.3-1.4-.4-2-.4s-1.4,0-2,.3c-.6.2-1.2.6-2.1,1.1-.4.3-.7.7-1.1,1.1-.3.4-.5.9-.7,1.5,0,.3-.1.7-.1,1.5s-.1.5-.4.8c-.2.1-.5.3-.9.5l-1.3.6c-.4.2-.8.4-1.2.5-.4.1-.6.2-.6.2-.2,0-.4,0-.5-.3s-.2-.4-.2-.6c0-.4.5-1.2,1.4-2.4,1.2-1.5,2.6-2.7,4.2-3.7,1.6-1,2.6-1.7,3.2-2,2.2-1.1,4-1.6,5.5-1.6ZM443.1,67.7c2,0,3.6-.5,4.8-1.6.3-.3.5-.6.7-1,.2-.4.4-.9.5-1.5.1-.8.2-2.1.3-3.8,0-1.7.1-3.4.1-5.2s0-.2,0-.3c0-.2-.2-.2-.3-.1-.3,0-.9.2-1.8.5-.9.3-1.9.6-2.9,1-1,.4-2,.8-3,1.2-1,.4-1.8.7-2.3,1-.5.3-.9.7-1.4,1.4-.5.7-.8,1.8-.8,3.3s.6,2.7,1.8,3.7c1.2,1,2.6,1.5,4.3,1.5Z"/>
    <path class="st0" d="M480.1,39c-.8,0-1.6.2-2.4.6s-1.6.9-2.3,1.6c-1.2,1.3-1.8,2.6-1.9,3.9,0,.5,0,1.2,0,2.2v3c0,3.7,0,6.8,0,9.3,0,2.5.2,4.3.3,5.3.2,1.5.7,2.6,1.5,3.1.8.5,2.1.8,4,1,1.2.2,1.8.5,1.8.9s-.8.7-2.4.7-1.9,0-3.6-.2c-1.7-.1-3.5-.2-5.5-.2s-2.3,0-3.1.3c-.8.2-1.4.3-1.9.3-1,0-1.4-.2-1.4-.5s.1-.3.4-.5c.3-.2.6-.4.9-.5,1-.3,1.8-.7,2.4-1.2.6-.6,1-1.5,1.2-2.8.1-.8.2-2.5.2-5s0-5.3,0-8.6v-11.1c0-.4-.2-.7-.6-1s-1-.7-1.9-1.5c-.3-.3-.5-.4-.6-.6s-.1-.3-.1-.4c0-.3.5-.5,1.6-.9.5-.1,1.3-.4,2.3-.8,1-.4,1.9-.8,2.6-1.2.6-.3,1-.5,1.4-.5s.2,0,.3.3.1.6.1,1.2v1.1c0,.5,0,1.1,0,1.8s0,1.3,0,1.9v1.4c0,.3.2.3.5,0,.7-.8,1.5-1.7,2.3-2.5.8-.8,1.7-1.5,2.6-2.2s1.8-1.2,2.8-1.6,1.9-.6,2.9-.6,2.5.5,3.5,1.4c.3.3.4.6.4,1.2s-.2.7-.5,1.3c-.3.5-.7,1-1.3,1.4-.5.4-.8.6-1,.7-.2,0-.4,0-.5,0s-.3,0-.5,0c-.2,0-.6-.3-1.2-.6-1.2-.6-2.2-1-3.2-1Z"/>
    <path class="st0" d="M505.1,71c-4.2,0-7.1-1.5-8.6-4.4-.8-1.2-1.2-3-1.2-5.3v-20.1c0-1.3-.1-2-.4-2-.3-.1-.6-.2-1.2-.3-.5,0-1-.2-1.6-.3-.8-.1-1.2-.4-1.2-.8s0-.2,0-.3c0,0,.3-.2.9-.5,1.3-.4,2.6-1.2,3.9-2.4s2.5-2.4,3.6-3.9c.3-.5.6-.7.9-.6.3,0,.4.1.4.3,0,.5-.1,1.2-.2,2.1s0,1.7,0,2.4c0,.1,0,.3,0,.5,0,.2.2.3.4.3.5,0,1.3,0,2.4,0,1.2,0,2.4,0,3.7,0s2.6,0,3.8,0c1.2,0,2.1,0,2.7,0s.3.1.4.3.2.5.2.8c0,.7,0,1.3-.3,1.7-.2.5-.4.7-.7.7h-2.9c-1.1,0-2.1,0-3.2,0-1.1,0-2.1,0-3,0h-2.4c-.6,0-1,0-1.2.2-.1.1-.2.4-.2.7v5c0,1.3,0,2.7,0,4.2s0,2.9,0,4.3c0,1.4,0,2.6,0,3.8s0,2,0,2.5c.1,1.7.3,2.9.4,3.6.1.7.3,1.4.7,1.9,1.3,1.9,3.4,2.8,6.5,2.8s2.8-.2,3.7-.6c.9-.4,1.6-.7,2-1,.6-.5.9-.5.9,0s-.2.7-.7,1.2c-.5.5-1,.9-1.6,1.4-1,.7-2.2,1.3-3.5,1.7s-2.6.6-4,.6Z"/>
    <path class="st0" d="M531.1,35.9c-1.7,0-3.1.5-4.3,1.6-1.2,1.1-1.7,2.6-1.7,4.7s.2,2.1.6,2.9c.4.8.9,1.6,1.6,2.2.6.6,1.2,1.1,1.9,1.6.7.5,1.2.8,1.6,1.1,1.6,1,3,2,4.1,2.8,1.1.8,2,1.7,2.7,2.6.7.9,1.2,1.8,1.6,2.8s.5,2.1.5,3.3-.2,2.1-.5,2.9-.8,1.6-1.3,2.3-1.1,1.2-1.7,1.7c-.6.5-1.2.9-1.7,1.1-1.1.7-2.3,1.2-3.5,1.5-1.3.3-2.4.4-3.5.4s-2.5-.1-3.5-.4c-1.1-.3-2.3-.7-3.8-1.3-.8-.3-1.3-.8-1.3-1.4s0-1.5,0-2.4-.1-1.6-.2-2.2c-.1-.6-.1-1,0-1.2s.2-.2.3-.2.3,0,.4.2c.2.2.4.7.7,1.6.5,1.2,1,2.2,1.7,3,.7.8,1.5,1.4,2.3,1.9.7.5,1.4.8,2.2.9.7.2,1.4.2,2,.2s1.4-.2,2.2-.5c.8-.3,1.5-.8,2.1-1.4.6-.6,1.2-1.4,1.6-2.2s.6-1.8.6-2.9c0-2-.6-3.6-1.8-4.8-1.2-1.2-2.7-2.3-4.4-3.4-.9-.6-1.8-1.2-2.8-1.9s-1.8-1.5-2.6-2.3c-.8-.9-1.4-1.8-1.9-2.8-.5-1-.8-2.1-.8-3.2,0-1.7.3-3.1.9-4.3.6-1.2,1.3-2.1,2.2-2.8.9-.7,2-1.4,3.3-2s2.9-.9,4.8-.9,2.4.1,3.6.4c1.2.3,2,.5,2.6.7.3.2.5.5.5.8,0,.5.2,1.2.3,2.1.1.9.2,1.6.3,2.2,0,1-.2,1.5-.5,1.5s-.3-.1-.4-.3-.2-.5-.3-.8c-.3-.7-.6-1.4-.9-2-.3-.6-.7-1.2-1.5-1.7-.5-.4-1.2-.7-1.9-1s-1.6-.4-2.4-.4Z"/>
    <path class="st0" d="M563.7,35.7c.9,0,1.8,0,2.6,0,.8,0,1.7,0,2.6,0s.7,0,1.1.1c.3,0,.5.3.5.5s-.2.4-.6.5c-.4.1-.8.2-1.1.3-1.2.2-1.9.5-2,1s0,1.1,0,1.8c.4,1.2.9,2.7,1.6,4.7s1.4,4,2.2,6.1c.8,2.1,1.5,4.2,2.3,6.2s1.4,3.7,2,5.1c0,.1.2.2.3.2s.2,0,.3-.2c.5-1,1.1-2.4,1.8-4s1.6-3.3,2.3-5c.8-1.7,1.5-3.3,2.1-4.7.6-1.4,1-2.4,1.2-2.9,0-.3.1-.5.2-.8,0-.3,0-.6,0-.8-.3-.6-.5-1.3-.7-1.9-.2-.6-.5-1.2-.7-1.7-.4-.9-.9-1.6-1.4-2.1-.6-.5-1.4-.9-2.3-1.2-.8-.2-1.2-.5-1.2-.8s.5-.6,1.4-.6,1.9,0,3.1.1c1.2,0,2.3.1,3.3.1s2.1,0,2.7,0c.6,0,1.2,0,1.9,0s1.5.2,1.5.5-.1.4-.4.5c-.3.2-.6.3-1,.4-1.2.3-1.9.6-2.2,1-.3.4-.2,1.3.3,2.8.3.7.7,2.1,1.5,4.1.7,2,1.5,4.2,2.4,6.5.9,2.3,1.7,4.5,2.5,6.5.8,2.1,1.4,3.5,1.7,4.3.1.3.2.4.3.3,0-.1,0-.2,0-.3.3-.5.8-1.6,1.6-3.3.8-1.7,1.6-3.5,2.4-5.5s1.6-3.8,2.4-5.6c.7-1.8,1.2-3,1.5-3.7.5-1.1.8-2.1,1.1-2.9.3-.9.4-1.5.4-1.8,0-.5-.2-.9-.5-1.3-.3-.3-1.1-.6-2.4-1-.7-.3-1-.4-1.2-.6-.2-.1-.2-.3-.2-.4,0-.4.4-.6,1.3-.6s1.6,0,2.3.1c.8,0,1.6.1,2.3.1s1.2,0,2.2-.1c.9,0,1.8-.1,2.6-.1s1.4.2,1.4.6-.1.4-.3.5c-.2.1-.7.3-1.4.5-.8.2-1.5.7-2.1,1.4s-1.3,1.8-2,3.1c-.8,1.7-1.9,4-3.3,7-1.4,3-2.8,6.2-4.4,9.8-.8,1.9-1.7,4-2.6,6.1-.9,2.1-1.6,3.9-2.1,5.4-.3.7-.6,1.2-.7,1.4-.2.2-.3.3-.4.3s-.3,0-.4-.2c-.2-.2-.3-.6-.5-1.3-.3-.7-.6-1.6-.9-2.7s-.9-2.7-1.6-4.7c-.8-2.3-1.7-4.7-2.7-7.4s-1.9-5.3-2.9-7.9c-.1-.5-.3-.5-.5,0-.2.4-.6,1.2-1.2,2.6-.6,1.3-1.2,2.8-1.9,4.4-.7,1.6-1.4,3.1-2.1,4.6-.7,1.5-1.2,2.7-1.5,3.4-.7,1.5-1.2,2.8-1.6,3.8s-.9,2.3-1.4,3.8c-.3.7-.5,1.2-.7,1.4-.2.2-.4.3-.5.3-.3,0-.5-.5-.9-1.5-.3-.7-.6-1.7-.9-3-.4-1.3-1-3.2-1.8-5.6-.4-1.2-1-2.8-1.8-4.9-.8-2.1-1.6-4.3-2.5-6.5-.8-2.2-1.6-4.2-2.3-5.9-.7-1.7-1.2-2.8-1.4-3.1-.3-.9-.8-1.7-1.6-2.4s-1.6-1.2-2.8-1.5c-.8-.3-1.3-.5-1.3-.8,0-.5.6-.7,1.7-.7s1.4,0,2.7.1c1.3,0,2.4.1,3.5.1Z"/>
    <path class="st0" d="M615.2,38c0-.3.3-.6,1-.8,1-.3,2-.7,3.1-1.2,1.1-.5,2-.8,2.8-1.2.8-.5,1.4-.7,1.6-.7.3,0,.4.5.4,1.4,0,.5-.1,1.2-.1,2.2,0,1,0,2.2,0,3.5v19.3c0,1.4,0,2.6,0,3.7,0,1,0,1.7.1,2.1.1,1.1.4,1.8.9,2.1.5.3,1.1.5,1.8.6,1,.2,1.5.5,1.5.8s-.2.4-.5.5c-.3,0-.7.1-1.1.1s-.5,0-1,0c-.5,0-1.1,0-1.8-.1-.7,0-1.4-.1-2.1-.1-.7,0-1.3,0-1.8,0-1.4,0-2.4,0-3.2,0-.8,0-1.4,0-1.9,0s-.6,0-.8-.1c-.2,0-.3-.2-.3-.4s.1-.3.4-.4c.3-.2.7-.3,1.4-.4,1-.3,1.7-.7,2.2-1.3.5-.6.8-2,.9-4,0-.5,0-1.4,0-2.6,0-1.2,0-2.6,0-4.2s0-3.2,0-4.9,0-3.3,0-4.7c0-1.4,0-2.7,0-3.7v-1.8c0-.5-.1-1-.4-1.4-.3-.4-1.2-1-2.6-1.7-.5-.2-.7-.4-.7-.7ZM622.1,18.1c1,0,1.8.4,2.2,1.1s.7,1.4.7,2.1c0,1.2-.4,2-1.2,2.5-.8.5-1.4.7-1.9.7-.8,0-1.4-.3-2-.9-.5-.6-.8-1.3-.8-2.2s.3-1.8,1-2.4c.6-.6,1.3-.9,2-.9Z"/>
    <path class="st0" d="M646.1,71c-4.2,0-7.1-1.5-8.6-4.4-.8-1.2-1.2-3-1.2-5.3v-20.1c0-1.3-.1-2-.4-2-.3-.1-.6-.2-1.2-.3-.5,0-1-.2-1.6-.3-.8-.1-1.2-.4-1.2-.8s0-.2,0-.3c0,0,.3-.2.9-.5,1.3-.4,2.6-1.2,3.9-2.4s2.5-2.4,3.6-3.9c.3-.5.6-.7.9-.6.3,0,.4.1.4.3,0,.5-.1,1.2-.2,2.1s0,1.7,0,2.4c0,.1,0,.3,0,.5,0,.2.2.3.4.3.5,0,1.3,0,2.4,0,1.2,0,2.4,0,3.7,0s2.6,0,3.8,0c1.2,0,2.1,0,2.7,0s.3.1.4.3.2.5.2.8c0,.7,0,1.3-.3,1.7-.2.5-.4.7-.7.7h-2.9c-1.1,0-2.1,0-3.2,0-1.1,0-2.1,0-3,0h-2.4c-.6,0-1,0-1.2.2-.1.1-.2.4-.2.7v5c0,1.3,0,2.7,0,4.2s0,2.9,0,4.3c0,1.4,0,2.6,0,3.8s0,2,0,2.5c.1,1.7.3,2.9.4,3.6.1.7.3,1.4.7,1.9,1.3,1.9,3.4,2.8,6.5,2.8s2.8-.2,3.7-.6c.9-.4,1.6-.7,2-1,.6-.5.9-.5.9,0s-.2.7-.7,1.2c-.5.5-1,.9-1.6,1.4-1,.7-2.2,1.3-3.5,1.7s-2.6.6-4,.6Z"/>
    <path class="st0" d="M678.4,37.7c-2.3,0-4.3.5-5.9,1.4-1.6.9-2.9,1.8-3.8,2.7-.3.3-.5.7-.7,1.3-.2.6-.3,1.5-.3,2.8,0,4.2,0,7.5,0,10s0,4.5.1,5.8c0,1.4.1,2.4.2,2.9,0,.6,0,1,0,1.2.2.9.5,1.6.9,2.1.4.5,1.1.9,2.2,1.1,1.6.3,2.3.6,2.3,1s-.5.6-1.4.6c-1.3,0-2.5,0-3.7-.2-1.2-.1-2.5-.2-4.2-.2s-2.3,0-3.2.2c-.8.1-1.7.2-2.5.2s-1.4-.2-1.4-.6.5-.5,1.5-.8c.7-.2,1.3-.4,1.7-.5.5-.1.8-.4,1.1-.7.3-.3.5-.8.6-1.3.1-.6.2-1.3.3-2.3.1-2,.2-5.3.3-10,0-4.6.1-11,.1-19.2s0-6.8,0-9.4c0-2.6,0-4.8,0-6.6v-8c0-1.5-.3-2.5-.8-3s-1.2-1-2.1-1.5c-.5-.3-.7-.5-.7-.8s.5-.5,1.5-.8c1.5-.5,2.7-.8,3.5-1.1s1.7-.6,2.4-1c.4-.2.7-.3.9-.3s.3.2.3.5c0,.4.1.9,0,1.5,0,.5,0,1.7,0,3.5s0,4,0,6.5c0,2.5,0,5.2-.1,8,0,2.8,0,5.4,0,7.9s0,4.5,0,6.3v3.1c0,.2,0,.3.1.3.1,0,.2,0,.2,0,.5-.5,1.4-1.2,2.6-2.1s2.4-1.6,3.5-2.1c.9-.4,2-.8,3.1-1.2,1.2-.4,2.5-.5,3.9-.5s2.8.3,4.4,1,2.9,1.8,4.1,3.5c.5.6.9,1.7,1.4,3.2s.7,4,.8,7.2c0,3.8,0,7.2,0,10s0,5.2,0,6.8c0,1,.3,1.7.7,2,.4.3,1.3.6,2.8.9.7.1,1.1.3,1.3.4.2.2.3.3.3.4,0,.5-.5.7-1.6.7s-2.3,0-3.3-.2c-1.1-.2-2.1-.2-3.2-.2s-2.4,0-3.1.2c-.7.1-1.5.2-2.4.2s-1.6-.2-1.6-.6.5-.6,1.5-.8c1.2-.2,2-.5,2.3-1,.3-.5.6-1.4.8-2.7,0-.6.1-1.3.2-2.1,0-.8.1-1.9.1-3.2s0-2.9.1-4.9c0-1.9,0-4.3,0-7s0-2.4-.3-3.6c-.2-1.2-.6-2.3-1.3-3.5-.7-1-1.5-1.9-2.6-2.6-1.1-.7-2.6-1.1-4.4-1.1Z"/>
    <path class="st0" d="M730.1,34.5c1.5,0,2.9.5,4.4,1.4,1.4.9,2.4,2.2,3,4,.3.8.5,2,.6,3.7.2,1.7.2,3.3.2,4.8s0,1.9,0,3.3c0,1.5,0,2.9-.1,4.5s-.1,3-.1,4.4,0,2.4,0,3c0,1,.3,1.9.8,2.7.5.8,1.5,1.2,3,1.2s1.8-.3,2.9-.9c.7-.4.9-.1.6.8-.5,1.2-1.4,2.1-2.7,2.8s-2.6,1.1-4.1,1.1-2.2-.4-3.2-1.3c-1-.8-1.7-1.9-2.2-3.1-.1-.3-.3-.3-.5,0-1.5,1.3-3,2.3-4.4,3.1-1.5.8-3.2,1.2-5.1,1.2s-3.8-.7-5.3-2.2c-1.5-1.5-2.3-3.4-2.3-5.9s.1-1.5.4-2.1c.3-.6.6-1.1,1-1.6s.8-.8,1.2-1.1.7-.5.9-.6c.6-.3,1.5-.7,2.7-1.2s2.6-1,4-1.5c1.4-.5,2.7-.9,3.9-1.3,1.2-.4,2-.6,2.5-.8.5-.1.8-.4,1-.7.2-.4.3-.6.3-.7,0-.6.1-1.3.1-2,0-.8,0-1.6,0-2.4,0-2-.2-3.7-.5-5.2-.4-1.5-1-2.5-1.9-3.1-.7-.5-1.4-.9-2.2-1.2-.7-.3-1.4-.4-2-.4s-1.4,0-2,.3c-.6.2-1.2.6-2.1,1.1-.4.3-.7.7-1.1,1.1-.3.4-.5.9-.7,1.5,0,.3-.1.7-.1,1.5s-.1.5-.4.8c-.2.1-.5.3-.9.5l-1.3.6c-.4.2-.8.4-1.2.5-.4.1-.6.2-.6.2-.2,0-.4,0-.5-.3s-.2-.4-.2-.6c0-.4.5-1.2,1.4-2.4,1.2-1.5,2.6-2.7,4.2-3.7,1.6-1,2.6-1.7,3.2-2,2.2-1.1,4-1.6,5.5-1.6ZM726.7,67.7c2,0,3.6-.5,4.8-1.6.3-.3.5-.6.7-1,.2-.4.4-.9.5-1.5.1-.8.2-2.1.3-3.8,0-1.7.1-3.4.1-5.2s0-.2,0-.3c0-.2-.2-.2-.3-.1-.3,0-.9.2-1.8.5-.9.3-1.9.6-2.9,1-1,.4-2,.8-3,1.2-1,.4-1.8.7-2.3,1-.5.3-.9.7-1.4,1.4-.5.7-.8,1.8-.8,3.3s.6,2.7,1.8,3.7c1.2,1,2.6,1.5,4.3,1.5Z"/>
    <path class="st0" d="M774.6,35.9c-1.7,0-3.1.5-4.3,1.6-1.2,1.1-1.7,2.6-1.7,4.7s.2,2.1.6,2.9c.4.8.9,1.6,1.6,2.2.6.6,1.2,1.1,1.9,1.6.7.5,1.2.8,1.6,1.1,1.6,1,3,2,4.1,2.8,1.1.8,2,1.7,2.7,2.6.7.9,1.2,1.8,1.6,2.8s.5,2.1.5,3.3-.2,2.1-.5,2.9-.8,1.6-1.3,2.3-1.1,1.2-1.7,1.7c-.6.5-1.2.9-1.7,1.1-1.1.7-2.3,1.2-3.5,1.5-1.3.3-2.4.4-3.5.4s-2.5-.1-3.5-.4c-1.1-.3-2.3-.7-3.8-1.3-.8-.3-1.3-.8-1.3-1.4s0-1.5,0-2.4-.1-1.6-.2-2.2c-.1-.6-.1-1,0-1.2s.2-.2.3-.2.3,0,.4.2c.2.2.4.7.7,1.6.5,1.2,1,2.2,1.7,3,.7.8,1.5,1.4,2.3,1.9.7.5,1.4.8,2.2.9.7.2,1.4.2,2,.2s1.4-.2,2.2-.5c.8-.3,1.5-.8,2.1-1.4.6-.6,1.2-1.4,1.6-2.2s.6-1.8.6-2.9c0-2-.6-3.6-1.8-4.8-1.2-1.2-2.7-2.3-4.4-3.4-.9-.6-1.8-1.2-2.8-1.9s-1.8-1.5-2.6-2.3c-.8-.9-1.4-1.8-1.9-2.8-.5-1-.8-2.1-.8-3.2,0-1.7.3-3.1.9-4.3.6-1.2,1.3-2.1,2.2-2.8.9-.7,2-1.4,3.3-2s2.9-.9,4.8-.9,2.4.1,3.6.4c1.2.3,2,.5,2.6.7.3.2.5.5.5.8,0,.5.2,1.2.3,2.1.1.9.2,1.6.3,2.2,0,1-.2,1.5-.5,1.5s-.3-.1-.4-.3-.2-.5-.3-.8c-.3-.7-.6-1.4-.9-2-.3-.6-.7-1.2-1.5-1.7-.5-.4-1.2-.7-1.9-1s-1.6-.4-2.4-.4Z"/>
    <path class="st0" d="M809.9,34.5c2.1,0,4,.5,5.8,1.4s3.3,2.1,4.4,3.3c1.5,1.7,2.5,3.5,3.1,5.4s.9,3.8.9,5.7c0,2.8-.4,5.3-1.1,7.4-.7,2.1-1.7,3.9-2.9,5.4s-2.6,2.8-4.1,3.8c-1.5,1-2.9,1.9-4.4,2.6-.8.4-1.9.7-3.1,1.1-1.2.3-2.6.5-4.1.5s-2.2,0-3.5-.3-2.2-.4-2.8-.6c-.2-.1-.4,0-.5.2-.2.3-.3.5-.3.8-.1.4-.2,1.3-.2,2.6s0,2.9,0,4.5,0,3.3,0,5c0,1.7,0,3.1.1,4.3.1,2.3.2,3.9.3,4.7,0,.8.3,1.5.6,2.1.3.7.9,1.2,1.7,1.5s1.9.5,3.1.7c.9.2,1.4.5,1.4.8s-.6.7-1.7.7-1.8,0-3.2-.2c-1.4-.1-3-.2-4.6-.2s-3.1.1-4.4.3-2.3.3-2.9.3c-1.2,0-1.7-.2-1.7-.6s.1-.3.4-.5.8-.4,1.6-.5c1.8-.5,2.9-1.1,3.4-1.8.5-.7.7-1.6.9-2.8,0-.9.1-2.3.1-4.2,0-1.9,0-4.6,0-8.1v-4.8c0-2,0-4.3,0-6.7s0-5,0-7.5,0-5,0-7.2c0-2.2,0-4.1,0-5.6,0-1.5,0-2.5,0-2.9,0-1-.1-1.9-.1-2.5s-.1-1.2-.3-1.5c-.2-.4-.4-.7-.7-1-.3-.3-.8-.6-1.4-.9-.6-.3-.9-.6-.9-.8,0-.4.4-.7,1.2-.9.2,0,.5-.2,1.1-.4.5-.2,1.1-.5,1.6-.8s1.2-.6,1.8-1c.6-.4,1.2-.7,1.7-1.1.6-.4,1-.6,1.3-.6s.4.3.4.8,0,1-.1,2c0,1,0,1.8,0,2.3s0,.2.1.3c0,0,.2,0,.3,0,2.2-1.6,4.2-2.8,6-3.5,1.8-.7,3.9-1.1,6.1-1.1ZM807.8,68.9c.7,0,1.5-.1,2.5-.4s1.8-.8,2.8-1.5c1.7-1.4,3.1-3.2,4.2-5.6,1.1-2.4,1.7-5.3,1.7-8.8s-.4-4.2-1.3-6.4-1.9-3.9-3.1-5.2c-.9-.8-2-1.6-3.2-2.3-1.2-.7-2.9-1-4.9-1s-2.8.2-4.2.5c-1.4.3-2.7.9-3.8,1.7-.5.3-.7.6-.9.8-.1.2-.3.7-.4,1.6,0,.4,0,1.1,0,2.1s0,2.2,0,3.5c0,1.3,0,2.7,0,4.2,0,1.5,0,2.9,0,4.2v3.4c0,1,0,1.6,0,1.8,0,.5.1.8.2,1.1s.2.6.4,1.2c.8,1.8,2.3,3.1,4.3,4,2,.8,4,1.3,5.9,1.3Z"/>
    <path class="st0" d="M844.6,34.5c1.5,0,2.9.5,4.4,1.4,1.4.9,2.4,2.2,3,4,.3.8.5,2,.6,3.7.2,1.7.2,3.3.2,4.8s0,1.9,0,3.3c0,1.5,0,2.9-.1,4.5s-.1,3-.1,4.4,0,2.4,0,3c0,1,.3,1.9.8,2.7.5.8,1.5,1.2,3,1.2s1.8-.3,2.9-.9c.7-.4.9-.1.6.8-.5,1.2-1.4,2.1-2.7,2.8s-2.6,1.1-4.1,1.1-2.2-.4-3.2-1.3c-1-.8-1.7-1.9-2.2-3.1-.1-.3-.3-.3-.5,0-1.5,1.3-3,2.3-4.4,3.1-1.5.8-3.2,1.2-5.1,1.2s-3.8-.7-5.3-2.2c-1.5-1.5-2.3-3.4-2.3-5.9s.1-1.5.4-2.1c.3-.6.6-1.1,1-1.6s.8-.8,1.2-1.1.7-.5.9-.6c.6-.3,1.5-.7,2.7-1.2s2.6-1,4-1.5c1.4-.5,2.7-.9,3.9-1.3,1.2-.4,2-.6,2.5-.8.5-.1.8-.4,1-.7.2-.4.3-.6.3-.7,0-.6.1-1.3.1-2,0-.8,0-1.6,0-2.4,0-2-.2-3.7-.5-5.2-.4-1.5-1-2.5-1.9-3.1-.7-.5-1.4-.9-2.2-1.2-.7-.3-1.4-.4-2-.4s-1.4,0-2,.3c-.6.2-1.2.6-2.1,1.1-.4.3-.7.7-1.1,1.1-.3.4-.5.9-.7,1.5,0,.3-.1.7-.1,1.5s-.1.5-.4.8c-.2.1-.5.3-.9.5l-1.3.6c-.4.2-.8.4-1.2.5-.4.1-.6.2-.6.2-.2,0-.4,0-.5-.3s-.2-.4-.2-.6c0-.4.5-1.2,1.4-2.4,1.2-1.5,2.6-2.7,4.2-3.7,1.6-1,2.6-1.7,3.2-2,2.2-1.1,4-1.6,5.5-1.6ZM841.2,67.7c2,0,3.6-.5,4.8-1.6.3-.3.5-.6.7-1,.2-.4.4-.9.5-1.5.1-.8.2-2.1.3-3.8,0-1.7.1-3.4.1-5.2s0-.2,0-.3c0-.2-.2-.2-.3-.1-.3,0-.9.2-1.8.5-.9.3-1.9.6-2.9,1-1,.4-2,.8-3,1.2-1,.4-1.8.7-2.3,1-.5.3-.9.7-1.4,1.4-.5.7-.8,1.8-.8,3.3s.6,2.7,1.8,3.7c1.2,1,2.6,1.5,4.3,1.5Z"/>
    <path class="st0" d="M878.2,39c-.8,0-1.6.2-2.4.6s-1.6.9-2.3,1.6c-1.2,1.3-1.8,2.6-1.9,3.9,0,.5,0,1.2,0,2.2v3c0,3.7,0,6.8,0,9.3,0,2.5.2,4.3.3,5.3.2,1.5.7,2.6,1.5,3.1.8.5,2.1.8,4,1,1.2.2,1.8.5,1.8.9s-.8.7-2.4.7-1.9,0-3.6-.2c-1.7-.1-3.5-.2-5.5-.2s-2.3,0-3.1.3c-.8.2-1.4.3-1.9.3-1,0-1.4-.2-1.4-.5s.1-.3.4-.5c.3-.2.6-.4.9-.5,1-.3,1.8-.7,2.4-1.2.6-.6,1-1.5,1.2-2.8.1-.8.2-2.5.2-5s0-5.3,0-8.6v-11.1c0-.4-.2-.7-.6-1s-1-.7-1.9-1.5c-.3-.3-.5-.4-.6-.6s-.1-.3-.1-.4c0-.3.5-.5,1.6-.9.5-.1,1.3-.4,2.3-.8,1-.4,1.9-.8,2.6-1.2.6-.3,1-.5,1.4-.5s.2,0,.3.3.1.6.1,1.2v1.1c0,.5,0,1.1,0,1.8s0,1.3,0,1.9v1.4c0,.3.2.3.5,0,.7-.8,1.5-1.7,2.3-2.5.8-.8,1.7-1.5,2.6-2.2s1.8-1.2,2.8-1.6,1.9-.6,2.9-.6,2.5.5,3.5,1.4c.3.3.4.6.4,1.2s-.2.7-.5,1.3c-.3.5-.7,1-1.3,1.4-.5.4-.8.6-1,.7-.2,0-.4,0-.5,0s-.3,0-.5,0c-.2,0-.6-.3-1.2-.6-1.2-.6-2.2-1-3.2-1Z"/>
    <path class="st0" d="M910.1,35.6c.9,0,1.9,0,2.9,0,1.1,0,1.9,0,2.5,0s.9,0,1.6,0c.7,0,1.4-.1,2.1-.1.7,0,1.5,0,2.2-.1.7,0,1.4,0,1.9,0,.9,0,1.4.2,1.4.6s0,.3-.2.4-.5.3-1.1.4c-.8.1-1.6.3-2.2.4-.6.2-1.3.4-1.9.7-.7.3-1.4.7-2.2,1.2-.8.5-1.8,1.1-2.9,2-.7.5-1.5,1.2-2.4,1.9-1,.8-1.9,1.6-2.9,2.4s-1.9,1.6-2.7,2.3c-.8.7-1.4,1.3-1.8,1.7-.1,0-.2.2-.1.3,0,.1.1.2.2.3.6.7,1.5,1.7,2.7,2.9,1.2,1.2,2.4,2.5,3.8,3.9,1.4,1.4,2.8,2.8,4.2,4.2,1.4,1.4,2.7,2.7,4,4,1.4,1.3,2.5,2.3,3.5,3,1,.7,2.2,1.2,3.7,1.5.4.1.7.3,1,.4.3.1.4.3.4.5,0,.3-.2.5-.5.6-.4,0-.7,0-1,0-1.2,0-2.7,0-4.5-.2s-3.6-.2-5.4-.2-1.5,0-2.2,0c-.7,0-1.4,0-2.1,0s-1,0-1.3,0c-.4,0-.5-.2-.5-.5s.2-.5.5-.6c.3-.1,1-.3,1.9-.5,1.6-.4,1.9-1.3,1-2.6-.6-.6-1.4-1.5-2.6-2.7-1.1-1.2-2.3-2.4-3.6-3.6-1.3-1.3-2.5-2.5-3.7-3.7-1.2-1.2-2.1-2.1-2.9-2.8-.4-.3-.7-.6-1.1-.9-.3-.3-.6-.4-.8-.4s-.2.1-.3.4,0,.5,0,.7c0,.9-.1,2.1-.1,3.5,0,1.4,0,3.7,0,6.8s0,2.1.1,2.8c0,.7.3,1.2.6,1.5.3.4.7.6,1.2.8s1.1.4,2,.6c1,.3,1.5.5,1.5.8,0,.5-.7.7-1.9.7s-2.4,0-3.4-.1c-1,0-2.1-.1-3.4-.1s-2.5,0-3.3.1c-.8,0-1.6.1-2.3.1-1,0-1.6-.2-1.6-.7s.4-.5,1.3-.7c1.5-.4,2.5-.9,3-1.5.5-.6.8-1.7,1-3.3.2-3.5.3-7.3.4-11.4,0-4,.1-7.9.2-11.7,0-4.5.1-9.2.2-14.1,0-4.9.1-9.5.1-13.7s-.1-3.6-.4-4.3c-.1-.4-.4-.7-.8-1-.4-.3-.8-.6-1.4-.8-.6-.3-.9-.5-.9-.7s.1-.3.3-.4c.2,0,.6-.2,1-.3,1.5-.5,2.8-1,3.8-1.4,1.1-.4,1.8-.7,2.1-.8.6-.3,1.1-.5,1.4-.5s.3.3.3.9c0,.8-.1,1.8-.2,3.1s-.1,2.8-.1,4.4c0,1.6,0,3.4,0,5.2s0,3.7,0,5.5,0,1.9,0,3.6c0,1.7-.1,3.8-.1,6.1s0,5.1-.1,8,0,6.1,0,9.4.2,1.6.5,1.6.5-.1.8-.3c.3-.2.8-.5,1.2-.8,1-.8,2.1-1.7,3.1-2.6,1.1-.9,2.1-1.8,3.1-2.7,1-.9,1.8-1.7,2.6-2.4.7-.7,1.3-1.4,1.8-1.9.7-.7,1.1-1.3,1.1-1.7,0-.7-.8-1.2-2.5-1.4-.4,0-.8-.2-1.1-.3-.4-.1-.5-.3-.5-.5s.1-.4.4-.5c.3-.1.6-.2,1-.2Z"/>
  </g>
</svg>