<?xml version="1.0" encoding="UTF-8"?>
<svg id="Layer_1" xmlns="http://www.w3.org/2000/svg" version="1.1" viewBox="0 0 740 168">
  <!-- Generator: Adobe Illustrator 29.0.0, SVG Export Plug-In . SVG Version: 2.1.0 Build 186)  -->
  <defs>
    <style>
      .st0 {
        fill: #9b2319;
      }
    </style>
  </defs>
  <path d="M159.3,19.4c-2.1.4-4.6,1.4-7.4,3-3.1,1.7-5.7,3.6-7.7,5.8-2.1,2.2-3.8,4.5-5.1,6.9s-2.3,4.8-2.9,7.3c-.6,2.4-.9,4.8-.9,7s.5,5.7,1.4,8.5c1,2.8,2.3,5.2,4.1,7.3,1.8,2.1,3.9,3.8,6.4,5,2.5,1.3,5.4,1.9,8.5,1.9s2.4-.2,3.9-.6,3.1-1,4.6-1.6,3-1.4,4.5-2.2c1.4-.8,2.6-1.6,3.6-2.3,1-.9,1.8-1.6,2.6-2.4.8-.7,1.2-1.5,1.2-2.2s-.4-.8-1.3-.2c-2.5,1.8-4.6,3.1-6.5,3.8-1.9.7-3.8,1-5.8,1s-4.9-.4-7.2-1.2c-2.2-.8-4.2-2-6-3.7-1.8-1.6-3.1-3.8-4.2-6.5-1-2.7-1.5-5.9-1.5-9.7s.8-8.4,2.3-11.4,3.3-5.5,5.3-7.3c2.3-2,5.4-3,9.1-3s6.5.9,9.1,2.6c2.6,1.8,4.6,4,6.2,6.8,1.6,2.8,2.8,5.9,3.6,9.4s1.2,7.1,1.2,10.7-.7,10-2.1,15.1c-1.4,5.1-3.1,9.9-5.1,14.5s-4.2,8.8-6.6,12.6c-2.4,3.8-4.6,6.8-6.6,9.2-4.3,4.9-8.4,9-12.3,12.3-3.9,3.3-7.5,5.9-10.5,7.7-1,.5-1.4,1-1.4,1.3s.4.5,1.3.5,2.4-.4,4.7-1.3,5.5-2.7,9.7-5.4c4.9-3.2,9.7-7.2,14.4-12.1s8.8-10.3,12.5-16.3c3.6-6,6.5-12.4,8.7-19.3s3.3-14,3.3-21.2-.5-6.6-1.4-10.1c-1-3.6-2.4-6.9-4.4-10s-4.5-5.6-7.7-7.7c-3.1-2-6.9-3-11.3-3s-4.2.2-6.3.6h0ZM228.2,115.3c2.1-.7,4-1.6,5.7-2.8,1-.7,1.8-1.5,2.6-2.2.7-.7,1.1-1.4,1.1-1.9s-.5-.7-1.4,0c-.6.4-1.7,1-3.3,1.6-1.5.6-3.6,1-6.1,1-5,0-8.6-1.5-10.7-4.6-.5-.9-.9-1.9-1.1-3.1s-.4-3.2-.6-6c-.1-.9-.2-2.2-.2-4.1v-6.2c0-2.3-.1-4.7-.2-7.1v-15.2c0-.5.1-.9.3-1.1.2-.2.9-.3,1.9-.3h19.2c.4,0,.8-.4,1.1-1.1.3-.7.5-1.7.5-2.9s-.1-1-.3-1.4c-.2-.4-.4-.6-.6-.6h-4.4c-2,0-4,.1-6.2.2-2.2,0-4.2.1-6.1.2h-4c-.8,0-.5-.2-.6-.5s-.2-.6-.2-.8c-.1-1.2-.1-2.5,0-4s.2-2.7.3-3.5c0-.3-.2-.5-.7-.6-.5,0-1,.3-1.5,1-1.8,2.4-3.8,4.6-5.9,6.5s-4.3,3.2-6.4,3.9c-.9.4-1.3.7-1.4.8-.1.1-.2.3-.2.5,0,.6.6,1.1,1.9,1.3.9.2,1.7.4,2.6.6.8.2,1.5.3,1.9.6.4.1.6,1.2.6,3.4v33.2c0,3.8.6,6.8,1.9,8.8,2.6,4.9,7.3,7.3,14.2,7.3s4.4-.3,6.5-1h-.2ZM259.4,58.3c-3.4,1.5-5.8,3-7.4,4.2-3.2,2.6-5.9,5.9-8.2,9.9-2.3,4-3.4,9.1-3.4,15.2s.9,8,2.6,11.5,4,6.6,6.8,9.3c2.8,2.7,6.1,4.7,9.7,6.2,3.7,1.5,7.5,2.2,11.4,2.2s5.8-.6,9-1.7,6.1-2.6,8.5-4.4c1.3-1,2.6-2.2,4.1-3.8,1.4-1.6,2.8-3.4,4-5.5s2.2-4.4,3-6.9c.8-2.6,1.2-5.3,1.2-8.3,0-4.3-.8-8.2-2.4-11.9-1.6-3.7-3.8-6.9-6.5-9.6s-5.9-4.8-9.6-6.4c-3.7-1.5-7.6-2.3-11.7-2.3s-7.7.8-11.1,2.3h0ZM277.9,61.4c3,1.8,5.5,4.2,7.5,7,2,2.9,3.6,6.1,4.6,9.6,1.1,3.5,1.6,7,1.6,10.5,0,5.7-.9,10.5-2.6,14.1-1.8,3.7-3.3,6-4.6,7.1-1.5,1.2-3.2,2.2-5.1,3-1.9.9-4,1.3-6.2,1.3s-5.3-.6-8.1-1.9c-2.9-1.3-5.5-3.4-8-6.4-2.8-3.4-4.7-7-5.8-10.9-1.1-3.8-1.7-7.3-1.7-10.5s.5-8.2,1.6-11.4c1.1-3.2,2.5-5.9,4.2-8.1,1.8-2.1,3.7-3.7,5.9-4.7,2.2-1,4.3-1.5,6.5-1.5,3.8,0,7.2.9,10.2,2.7h0ZM337.5,65.1c1,.5,1.6.9,2,1s.7.2.9.2.5,0,.8-.2c.3-.1.9-.5,1.6-1.1.9-.6,1.5-1.4,2.1-2.2.5-.9.8-1.5.8-2.1,0-.9-.2-1.5-.6-1.9-1.7-1.5-3.6-2.2-5.7-2.2s-3.2.3-4.8,1c-1.6.7-3.1,1.6-4.6,2.6-1.5,1.1-2.9,2.3-4.3,3.6-1.4,1.3-2.7,2.7-3.8,4.1-.5.5-.8.5-.8,0v-10.2c0-1,0-1.6-.2-1.9-.1-.3-.3-.5-.5-.5-.5,0-1.3.3-2.2.8-1.2.6-2.6,1.3-4.2,1.9-1.7.6-2.9,1.1-3.8,1.3-1.8.5-2.7,1-2.7,1.4s0,.4.2.6l1,1c1.4,1.2,2.4,2,3.1,2.4s1,1,1,1.6v32.5c0,4.1-.2,6.8-.4,8.2-.3,2.1-1,3.6-2,4.6-1,.9-2.3,1.6-3.9,2-.5.2-1,.5-1.5.8s-.7.6-.7.8c0,.5.8.8,2.4.8s1.9-.2,3.2-.5c1.3-.3,3-.5,5.1-.5,3.2,0,6.2.1,9,.3,2.8.2,4.8.3,6,.3,2.7,0,4-.4,4-1.1s-1-1.1-3-1.4c-3.1-.2-5.3-.7-6.6-1.6-1.3-.9-2.2-2.6-2.5-5.1-.2-1.6-.4-4.5-.5-8.7s-.2-9.3-.2-15.4v-5c0-1.6,0-2.8.2-3.6.2-2.1,1.3-4.3,3.2-6.4,1.2-1.1,2.4-1.9,3.8-2.6,1.3-.7,2.6-1,3.9-1s3.4.5,5.3,1.6h0v-.2ZM360.9,104.2c0,2.9-.3,4.9-.9,6.1s-1.9,2-3.9,2.6c-1.9.6-2.9,1.2-2.9,1.8s.8.8,2.4.8c1.4-.1,2.9-.2,4.6-.3,1.6-.1,3.4-.2,5.2-.2h6.7c1.8,0,3.4.1,4.9.2,1.4.1,2.7.2,3.9.2h3.8q1.4,0,1.9-.2c.5-.2.8-.5.8-.9s-.9-.9-2.6-1.4c-.9-.2-1.7-.4-2.4-.5-.7-.1-1.5-.3-2.2-.5-.7-.3-1.4-.9-2.1-1.7-.6-.8-1.1-2.7-1.3-5.8,0-1.3,0-3.9-.2-7.7-.1-3.9-.2-8-.2-12.5s-.1-8.5-.2-12.4v-7.3c0-.2,0-.5.2-.8s.3-.5.6-.5h14c.9,0,1.8-.9,1.8-2.7,0-2.7-.5-4-1.6-4h-13.7c-.3,0-.7-.2-1-.5-.2-.3-.3-.5-.3-.6-.2-.4-.3-1.3-.4-2.7v-9.6c0-2.1.1-4.3.2-6.5,0-2.2.1-4.4.2-6.5s.2-3.7.3-4.9c.5-5.6,1.5-9.6,3-12,1.5-2.3,3.6-3.5,6.4-3.5s2.6.3,3.8,1c1.3.7,2.4,1.5,3.5,2.5s2,1.9,3,2.9c.9,1,1.7,1.7,2.3,2.1,1.2.7,2.5.7,4,0,.3-.1.8-.4,1.4-.9s1.1-1.1,1.7-1.8c.5-.7,1-1.4,1.4-2.1.4-.7.6-1.4.6-2,0-1.7-1.2-3.2-3.6-4.4s-5.3-1.8-8.9-1.8-4.2.3-6.5.8-4.4,1.3-6.2,2.2c-2.9,1.5-5.4,3.1-7.5,5-2.1,1.8-3.9,3.7-5.3,5.7s-2.6,3.9-3.5,5.8c-.9,1.9-1.6,3.7-2.2,5.3-.6,1.8-1.1,3.6-1.4,5.4-.3,1.8-.6,3.6-.8,5.5-.2,1.9-.4,4-.5,6.4-.1,2.3-.2,4.9-.3,7.8,0,.6-.4,1.3-1.3,1.9-.6.5-1.3,1-2.1,1.5-.7.5-1.4.9-1.9,1.2-1.3,1-1.9,1.5-1.9,1.8s.2.6.7.8c.5.2.9.4,1.2.5.7.1,1.5.2,2.3.2h1.8c.7.2,1.1,1,1.1,2.4v38.2h0v.6ZM417.8,57c-3.5,1.1-6.9,3-10.2,5.7-1.3,1-2.6,2.2-3.9,3.6s-2.6,3.1-3.7,5.1-2,4.2-2.7,6.7-1,5.2-1,8.2c0,4.3.8,8.3,2.5,12,1.6,3.7,3.9,6.9,6.8,9.7,2.9,2.7,6.3,4.9,10.1,6.5,3.9,1.6,8.1,2.4,12.7,2.4s6.2-.5,9.7-1.5,6.7-2.6,9.4-4.7c1.3-1,2.6-2.2,4.1-3.8,1.4-1.5,2.8-3.4,4-5.4,1.2-2.1,2.3-4.4,3.1-7.1.9-2.7,1.3-5.6,1.3-8.8s-.8-8.1-2.3-11.7c-1.5-3.7-3.7-6.9-6.5-9.6s-6.2-4.9-10.1-6.5-8.2-2.4-13-2.4-6.7.6-10.2,1.7h0ZM433.8,60.3c2.1,1.5,3.8,3.6,5.1,6.3,1.3,2.7,2.3,6,3,9.7.6,3.8,1,8,1,12.5s-.6,10.8-1.9,14.5-2.4,6.1-3.4,7.3c-1.9,2.4-4.4,3.7-7.3,3.7s-4.3-.8-6.4-2.3-4-3.7-5.7-6.5c-2-3.4-3.4-7.2-4-11.4-.6-4.2-1-8.2-1-12.1s.4-6.7,1.1-9.7c.7-2.9,1.8-5.5,3-7.6,1.3-2.1,2.7-3.8,4.3-4.9,1.6-1.2,3.2-1.8,4.9-1.8,2.8,0,5.2.7,7.3,2.2h0ZM499.2,57.4c-1.6.7-3.2,1.7-4.7,2.7-1.5,1.1-3.1,2.2-4.7,3.5-.2.2-.4.3-.6.2-.2,0-.2-.2-.2-.4,0-1.2,0-2.6,0-4.2s.2-2.8.3-3.7c0-.5-.2-.9-.5-1.2-.3-.3-.6-.3-.8,0-.6.3-1.6.8-3,1.4-1.3.6-2.8,1.3-4.4,1.9-1.6.6-3.2,1.2-4.9,1.8-1.7.5-3.2,1-4.6,1.3-1.5.3-2.2.7-2.2,1.3v.6c0,.2.5.5,1.2,1,1.6,1.2,2.6,2.1,3,2.8.4.7.6,1.5.6,2.3v20.9c0,6.6-.2,12.2-.4,16.9,0,1.8-.4,3.1-.9,3.9s-1.8,1.4-4.1,1.8c-.7.2-1.4.5-2,.7-.6.3-.9.6-.9.9,0,.9,1,1.3,3,1.3s4.6,0,6.5-.2c1.9-.1,3.5-.2,4.6-.2h3.4c1.4,0,2.9.1,4.4.2s2.8.2,4,.2h2.4c.4,0,1.1,0,1.8-.2.7-.1,1-.4,1-1s-.9-1.2-2.6-1.6c-1.5-.5-2.6-1.1-3.2-1.8-.6-.6-1.1-1.9-1.3-3.7,0-1-.2-3.2-.3-6.9,0-3.6-.2-7.9-.3-12.9v-18.7c0-1.5.2-1.3.5-1.9s.7-1.1,1.1-1.4c1-.9,2.2-1.6,3.8-2.2,1.5-.6,3.2-.9,4.9-.9s2.4.2,3.8.5c1.3.3,2.6.9,3.8,1.8,1,.7,1.8,1.6,2.4,2.5.6.9,1.1,2.1,1.4,3.4.3,1.4.6,3.1.7,5.1.2,2,.2,4.6.2,7.7v23.5c0,1.8-.3,3.1-1,3.9-.6.8-2,1.5-4.2,2.2-1.6.3-2.4.8-2.4,1.4s.9,1.1,2.7,1.1,1.9-.1,3.7-.3c1.8-.2,5-.3,9.6-.3s3.6,0,5.9.2c2.3.2,4.4.2,6.2.2s2.2-.3,2.2-1-.2-.7-.6-.9-.8-.3-1.2-.6c-1.1-.3-1.9-.7-2.6-1-.7-.4-1.2-1-1.6-1.8-.4-.9-.6-2-.8-3.5s-.2-3.5-.2-5.9v-9.8c0-1.3,0-2.7-.2-4.2v-5.7c0-4.7-.5-8.8-1.4-12.2-.9-3.5-2.3-6.1-4.2-7.9-1.3-1.5-2.9-2.8-5-3.8-2-1.1-4.6-1.6-7.8-1.6s-6.3.7-9.4,2.1h0v.4ZM564.2,56.9c-3.2,1-6,2.2-8.5,3.7-1.9,1.2-3.8,2.6-5.7,4.4s-3.6,3.8-5,6.1c-1.4,2.3-2.6,4.8-3.5,7.6-.9,2.8-1.4,5.7-1.4,8.9s.7,8.5,2.2,12.5c1.4,3.9,3.5,7.2,6.3,9.9,2.1,2,4.6,3.6,7.4,4.8,2.8,1.2,5.6,1.8,8.4,1.8s4.2-.4,7.4-1.2c3.2-.8,6.7-2.7,10.5-5.8,0-.1.3-.2.5-.2s.3.2.3.5c0,.9,0,1.8,0,3,0,1.1-.2,2.2-.3,3.3,0,.2,0,.5.2,1,.2.4.3.6.6.5,2.1-.6,4.9-1.4,8.4-2.2,3.5-.9,7.6-1.5,12.4-2.1,1.5-.2,2.5-.6,3-1.3.5-.6.8-1.3.8-1.9s-.5-1-1.4-.6c-1,.2-2.1.5-3.5.7-1.4.3-2.3.4-2.9.4s-.9-.4-1-1.1c-.2-2.1-.3-6-.3-11.7v-32.9c0-5,0-10,.2-14.9,0-4.9,0-9.7.2-14.3,0-4.6,0-8.7.2-12.4,0-3.7,0-6.8.2-9.3,0-2.5,0-4.1.2-4.7,0-1.8-.2-2.7-.8-2.7s-1.3.3-2.4.8c-.3.1-1,.3-2.2.6-1.1.3-2.5.7-4.1,1.1-1.6.4-3.4.8-5.3,1.2-1.9.4-3.8.7-5.7,1-1.9.2-2.9.6-2.9,1.3s.6,1.2,1.8,1.6c2,.5,3.4,1.3,4.2,2.2.5.7.8,1.8.8,3,0,1.9.2,4.8.3,8.5,0,3.8.2,7.6.2,11.4v10.5c0,3.1,0,5-.2,5.7,0,.5-.3.8-.8.8-.7-.2-1.9-.4-3.6-.6-1.7-.2-3.5-.2-5.7-.2s-6.2.5-9.4,1.4h-.1ZM575.8,60c2.1,1.1,4,3,5.7,5.5.2.3.5.9.8,1.8s.6,1.8.8,2.6c.2,1.4.4,3.6.5,6.6s.2,6.3.2,9.7,0,6.8-.2,10c0,3.2-.3,5.6-.5,7.3,0,.9-.3,1.6-.6,2.2s-.5,1.1-.7,1.3c-1.1.9-2.3,1.5-3.8,1.9s-2.9.6-4.3.6-3.9-.5-5.8-1.6c-2-1.1-3.8-2.7-5.5-4.9-1.7-2.2-3.1-5-4.2-8.4-1.1-3.4-1.6-7.5-1.6-12.3s.7-10.1,2.1-13.8c1.4-3.7,3-6.3,4.8-7.9,1.2-1.1,2.2-1.8,3.2-2.1,1-.3,1.9-.5,2.7-.5,2.2,0,4.4.6,6.5,1.7h0v.3ZM629.5,57.6c-3.3,1.5-6,3.1-8.1,5-3.6,3.1-6.3,6.8-8.1,11.3-1.8,4.4-2.6,8.8-2.6,13.2s.7,8.1,2,11.9,3.2,7,5.7,9.7c2.4,2.7,5.3,4.7,8.7,6.1s7.1,2.2,11.1,2.2,9.8-1.1,13.8-3.4,7.2-5.2,9.7-8.7c.7-1.1,1.1-1.9,1.1-2.4s-.2-.7-.5-.7-.7.2-1.3.9c-2,1.9-4.3,3.2-6.7,3.8-2.5.6-5.2,1-8.1,1s-4.4-.5-7-1.5c-2.7-1-5-2.6-6.9-4.7-2.1-2.3-3.8-5-5.1-8.1-1.3-3-1.9-6.6-1.9-10.8s0-2.4.2-3.6.3-2.2.6-3c.2-.2.5-.5.7-.8.3-.3.5-.5.7-.5h11.3c2.7,0,5.4.1,8.3.2,2.9,0,5.5.1,7.8.2h4.2c.5,0,.9-.2,1.3-.7.4-.5.6-1,.6-1.5,0-2.2-.5-4.4-1.5-6.5s-2.4-3.9-4.2-5.5-3.9-2.9-6.4-3.8c-2.5-1-5.2-1.4-8.1-1.4-4.3,0-8,.7-11.3,2.2h0ZM642.8,58.4c1,.6,1.8,1.2,2.3,1.8,1.5,2.1,2.2,4.7,2.2,7.7s-.2,1.6-.7,2.5-1.8,1.4-3.9,1.4l-15.2.2c-.2,0-.4-.1-.6-.3-.2-.2-.2-.4-.2-.6,0-.8.3-2.1,1-3.8.7-1.6,1.5-3.1,2.5-4.4,1.4-1.5,2.8-2.7,4.2-3.8,1.4-1,3-1.5,4.8-1.5s2.6.3,3.6.9h0ZM700.6,57.4c-1.6.7-3.2,1.7-4.7,2.7-1.5,1.1-3.1,2.2-4.7,3.5-.2.2-.4.3-.6.2-.2,0-.2-.2-.2-.4,0-1.2,0-2.6,0-4.2s.2-2.8.3-3.7c0-.5-.2-.9-.5-1.2-.3-.3-.6-.3-.8,0-.6.3-1.6.8-3,1.4-1.3.6-2.8,1.3-4.4,1.9-1.6.6-3.2,1.2-5,1.8-1.7.5-3.2,1-4.6,1.3-1.5.3-2.2.7-2.2,1.3v.6c0,.2.5.5,1.2,1,1.6,1.2,2.6,2.1,3,2.8.4.7.6,1.5.6,2.3v20.9c0,6.6-.2,12.2-.4,16.9,0,1.8-.4,3.1-.9,3.9s-1.8,1.4-4.1,1.8c-.7.2-1.4.5-2,.7-.6.3-.9.6-.9.9,0,.9,1,1.3,3,1.3s4.6,0,6.5-.2c1.9-.1,3.5-.2,4.6-.2h3.4c1.4,0,2.9.1,4.4.2s2.8.2,4,.2h2.4c.4,0,1.1,0,1.8-.2.7-.1,1-.4,1-1s-.9-1.2-2.6-1.6c-1.5-.5-2.6-1.1-3.2-1.8-.6-.6-1.1-1.9-1.3-3.7,0-1-.2-3.2-.3-6.9,0-3.6-.2-7.9-.3-12.9v-18.7c0-1.5.2-1.3.5-1.9s.7-1.1,1.1-1.4c1-.9,2.2-1.6,3.8-2.2,1.5-.6,3.2-.9,4.9-.9s2.4.2,3.8.5c1.3.3,2.6.9,3.8,1.8,1,.7,1.8,1.6,2.4,2.5.6.9,1.1,2.1,1.4,3.4.3,1.4.6,3.1.7,5.1.2,2,.2,4.6.2,7.7v23.5c0,1.8-.3,3.1-1,3.9-.6.8-2,1.5-4.2,2.2-1.6.3-2.4.8-2.4,1.4s.9,1.1,2.7,1.1,1.9-.1,3.7-.3c1.8-.2,5-.3,9.6-.3s3.6,0,5.9.2c2.3.2,4.4.2,6.2.2s2.2-.3,2.2-1-.2-.7-.6-.9-.8-.3-1.2-.6c-1.1-.3-1.9-.7-2.6-1-.7-.4-1.2-1-1.6-1.8-.4-.9-.6-2-.8-3.5s-.2-3.5-.2-5.9v-9.8c0-1.3,0-2.7-.2-4.2v-5.7c0-4.7-.5-8.8-1.4-12.2-.9-3.5-2.3-6.1-4.2-7.9-1.3-1.5-2.9-2.8-5-3.8-2-1.1-4.6-1.6-7.8-1.6s-6.3.7-9.4,2.1h0l.2.4Z"/>
  <path d="M8.7,62.8c2.3,1.2,3.8,2.1,4.2,2.8.5.7.7,1.5.7,2.3v25c0,2.6,0,4.9-.2,6.9v4.2c0,3.4-.6,5.6-1.4,6.6-.9,1-2.1,1.7-3.7,2.2-1.2.2-2,.5-2.4.7-.4.3-.6.5-.6.7,0,.3.2.6.6.7.4.2.8.2,1.4.2.9,0,1.9,0,3.2-.2,1.3-.1,3-.2,5.3-.2h3c1.2,0,2.3.1,3.4.2s2.1.2,3,.2h1.6c.6,0,1.2,0,1.8-.2.5-.2.8-.5.8-.9s-.8-1-2.4-1.3c-1.2-.2-2.2-.6-3-1-.8-.5-1.3-1.6-1.5-3.4,0-.6-.2-1.8-.2-3.5v-43.8c0-1.7,0-2.8.2-3.6,0-1.5,0-2.2-.6-2.2s-1.2.4-2.6,1.1c-1.2.5-2.7,1.2-4.6,1.9-1.9.7-3.6,1.4-5.2,1.9-1.1.3-1.6.7-1.6,1.3s.4.8,1.1,1.1h0l-.3.3ZM15.7,30.2c-1.1,1-1.6,2.3-1.6,4s.5,2.6,1.4,3.6,2,1.5,3.3,1.5,1.9-.4,3.2-1.2c1.3-.8,1.9-2.2,1.9-4.1s-.4-2.3-1.1-3.5-2-1.8-3.7-1.8-2.3.5-3.4,1.4h0ZM46.8,131.1c1.8-2.7,3.4-4.8,5-6.1.3-.3.9-.6,1.6-.9s2.2-.5,4.3-.7c2.1-.2,4.8-.3,8.1-.3h9.6c5,0,8.7,1.3,11,3.8,2.3,2.6,3.5,5.5,3.5,8.9s-1,7.2-2.9,10.5c-1.9,3.2-4,5.7-6.2,7.3-2.7,1.8-5.3,2.9-8.1,3.3-2.7.4-5,.6-6.8.6s-4-.1-5.5-.3c-1.5-.2-2.9-.5-4-1-1.1-.4-2.2-.9-3.1-1.5-1-.6-2-1.3-3-2-2.3-1.8-4-4-4.9-6.5s-1.4-4.6-1.4-6.1c0-3.2.9-6.1,2.6-8.9h.2ZM52.4,56.5c-2.9,1-5.5,2.6-8,4.9-2,1.8-3.6,3.9-4.9,6.4-1.2,2.5-1.8,5.4-1.8,8.8s.4,4.7,1.2,6.9c.8,2.1,1.8,4,3,5.7s2.6,3.2,4,4.5,2.8,2.3,4.1,3c.5.3.6.6.3,1-.6.9-1.5,1.8-2.5,2.8s-2.1,2.1-3.3,3.1c-1.2,1.1-2.4,2.1-3.7,3-1.3,1-2.5,1.8-3.7,2.6-.2.1-.5.3-.7.6-.3.3-.4.6-.4.9,0,1.5.5,2.9,1.4,4.3s2,2.6,3.3,3.8c1.3,1.1,2.7,2,4.2,2.8,1.5.7,3,1.3,4.2,1.6.2.1.3.3.2.7,0,.4,0,.6-.2.7-.9,1-1.8,2.1-2.9,3.5s-2.1,2.8-3.2,4.2c-1.1,1.4-2,2.6-2.8,3.6s-1.3,1.7-1.5,2c-.5.7-1.1,1.7-1.8,2.8-.6,1.1-1,2.5-1,4.1,0,3.1.7,5.7,2,8,1.3,2.2,3.1,4.1,5.2,5.6s4.6,2.6,7.4,3.4c2.8.7,5.8,1.1,8.9,1.1s6.7-.4,9.6-1.3,5.5-1.9,8-3.2c2.6-1.4,5-3,7.3-4.9,2.3-1.9,4.4-3.9,6.1-6.2,1.7-2.3,3.1-4.7,4.1-7.3,1-2.6,1.5-5.2,1.5-8s-.5-5.1-1.4-7.5c-.9-2.5-2.3-4.4-4.1-5.9-1.5-1.2-3-2.1-4.6-2.9-1.6-.7-4-1.1-7.3-1.1h-3.8c-1.6,0-3.3.1-5,.2-1.8,0-3.5.1-5.2.2h-4.5c-2,0-4,0-5.8-.2-1.9-.2-3.5-.5-5-1-1.4-.5-2.6-1.2-3.4-2.1-.9-.9-1.3-2-1.3-3.4s0-.9.4-1.6.8-1.5,1.5-2.2c1-1.1,2-2.2,3.2-3.3,1.2-1.1,2.2-2,3.2-2.6,0-.1.4-.2.9-.4.5-.2.9-.2,1.2,0,.6.1,1.6.2,2.9.4,1.3.2,2.4.2,3.5.2s2.8-.2,4.9-.6,4.4-1.5,7.1-3.4c2.8-2,5.1-4.9,7.1-8.6s3-8,3-12.9,0-3.1-.2-4.3c-.1-1.2-.2-2-.2-2.6s.1-.4.3-.6.4-.2.6-.2h10.2c.5,0,.7-.2,1.1-.7.4-.5.6-1.1.6-2s-.2-1.6-.5-2.3c-.3-.7-.7-1-1.1-1h-12c-1.7,0-2.9,0-3.7-.2-.7-.1-1.4-.3-2.1-.6-.3-.2-1-.5-2-1-1-.4-2.2-.9-3.6-1.4s-3-.9-4.7-1.3c-1.8-.4-3.6-.6-5.5-.6-2.9,0-5.7.5-8.6,1.5h0l.3.5ZM66.3,58.6c1.5,1,3,2.3,4.5,3.9,1.8,2.2,3.1,4.9,3.9,7.9s1.2,6.3,1.2,9.7-.3,3.7-1,5.6-1.6,3.7-2.8,5.3c-1.2,1.6-2.6,2.9-4.2,3.9-1.7,1-3.5,1.5-5.5,1.5s-4.5-.5-6.1-1.4c-1.7-.9-3.1-1.9-4.4-3.1-1.4-1.4-2.6-3.6-3.8-6.8-1.1-3.1-1.7-6.4-1.7-9.8s.4-5.1,1.2-8c.8-2.9,2-5.1,3.8-6.5,2.8-2.4,5.7-3.7,8.9-3.7s4.6.5,6.1,1.5h0Z"/>
  <path class="st0" d="M117.4,93.5c5.1,0,9.2-4.1,9.2-9.2s-4.1-9.2-9.2-9.2-9.2,4.1-9.2,9.2,4.1,9.2,9.2,9.2h0Z"/>
</svg>